<svg id="Ebene_1" data-name="Ebene 1" xmlns="http://www.w3.org/2000/svg" viewBox="0 0 200.22 140.1">
  <defs>
    <style>
      .cls-1 {
        fill: none;
      }
    </style>
  </defs>
  <title>LT3</title>
  <g>
    <rect class="cls-1" width="200" height="140.1"/>
    <path d="M143.18,56.56c13.17,0,23.89-7.56,23.89-16.87,0-9.13-10.72-16.68-23.89-16.68s-23.89,7.55-23.89,16.68C119.29,49,130,56.56,143.18,56.56ZM109.63,79.92c13.17,0,23.89-7.56,23.89-16.87,0-9.13-10.72-16.68-23.89-16.68S85.74,53.92,85.74,63.05C85.74,72.36,96.45,79.92,109.63,79.92Zm66.92-46.73c13.18,0,23.89-7.55,23.89-16.86,0-9.13-10.71-16.69-23.89-16.69S152.66,7.2,152.66,16.33C152.66,25.64,163.38,33.19,176.55,33.19Z" transform="translate(-0.22 0.36)"/>
  </g>
</svg>
