<svg id="Ebene_1" data-name="Ebene 1" xmlns="http://www.w3.org/2000/svg" viewBox="0 0 200.48 140.1">
  <defs>
    <style>
      .cls-1 {
        fill: none;
      }
    </style>
  </defs>
  <title>LT5</title>
  <g>
    <rect class="cls-1" width="200" height="140.1"/>
    <path d="M81.24,66.7c-13.12,0-23.8,7.53-23.8,16.8,0,9.1,10.68,16.62,23.8,16.62S105,92.6,105,83.5C105,74.23,94.36,66.7,81.24,66.7Zm19.94,8.23H66.89c12.25,15,35.51,25.19,61.93,25.19,39.36,0,71.38-22.39,71.38-50s-32-50-71.38-50-71.38,22.39-71.38,50h36c0-22,15.92-39.88,35.34-39.88,20,0,35.87,17.84,35.87,39.88C164.69,72,148.77,90,128.82,90,117.63,90,107.65,84,101.18,74.93Z" transform="translate(0.28 -0.05)"/>
  </g>
</svg>
