<svg id="Ebene_1" data-name="Ebene 1" xmlns="http://www.w3.org/2000/svg" viewBox="0 0 199.72 139.86">
  <defs>
    <style>
      .cls-1 {
        fill: none;
      }
    </style>
  </defs>
  <title>LT6</title>
  <g>
    <rect class="cls-1" width="199.66" height="139.86"/>
    <path d="M57.32,50.28H92.87c0-21.89,15.93-39.92,35.89-39.92,11.21,0,21.19,5.95,27.67,15.06h34.33C178.5,10.36,155.21.2,128.76.2,89.36.2,57.32,22.61,57.32,50.28Zm23.81,50.09c13.14,0,23.82-7.53,23.82-16.82,0-9.1-10.68-16.63-23.82-16.63S57.32,74.45,57.32,83.55C57.32,92.84,68,100.37,81.13,100.37ZM176.4,33.65c13.13,0,23.81-7.53,23.81-16.81C200.21,7.73,189.53.2,176.4.2s-23.82,7.53-23.82,16.64C152.58,26.12,163.26,33.65,176.4,33.65Zm-75.83,41.5H66.77c12.26,15.06,35.55,25.22,62,25.22,39.41,0,71.45-22.42,71.45-50.09H164.14c0,22.07-15.94,39.93-35.38,39.93C117.38,90.21,107.23,84.26,100.57,75.15Z" transform="translate(-0.5 -0.09)"/>
  </g>
</svg>
