<svg id="Ebene_1" data-name="Ebene 1" xmlns="http://www.w3.org/2000/svg" viewBox="0 0 200 140.42">
  <defs>
    <style>
      .cls-1 {
        fill: none;
      }
    </style>
  </defs>
  <title>LT7</title>
  <g>
    <rect class="cls-1" y="0.32" width="200" height="140.1"/>
    <path d="M59.39,40.28H94.47c4-17.1,18-30,34.73-30,11.16,0,21.11,5.93,27.57,15H191C178.76,10.27,155.55.14,129.2.14,94.64.14,65.84,17.42,59.39,40.28ZM163.4,60h0Zm-34.2,6.8c13.08,0,23.73-7.5,23.73-16.75,0-9.08-10.65-16.58-23.73-16.58S105.46,41,105.46,50.06C105.46,59.31,116.11,66.81,129.2,66.81ZM94.47,40.28h0ZM81.73,100c13.09,0,23.73-7.5,23.73-16.75,0-9.08-10.64-16.58-23.73-16.58S58,74.14,58,83.22C58,92.47,68.64,100,81.73,100Zm94.93-66.49c13.09,0,23.74-7.51,23.74-16.76C200.4,7.65,189.75.14,176.66.14s-23.73,7.51-23.73,16.58C152.93,26,163.58,33.48,176.66,33.48ZM199,60H163.4c-4,17.1-17.8,29.84-34.2,29.84-11.35,0-21.47-5.94-28.1-15H67.42C79.63,89.85,102.84,100,129.2,100,163.58,100,192.37,82.87,199,60Z" transform="translate(-0.4 -0.14)"/>
  </g>
</svg>
