<svg id="Ebene_1" data-name="Ebene 1" xmlns="http://www.w3.org/2000/svg" viewBox="0 0 200 140.1">
  <defs>
    <style>
      .cls-1 {
        fill: none;
      }
    </style>
  </defs>
  <title>LT8</title>
  <g>
    <rect class="cls-1" width="200" height="140.1"/>
    <path d="M163.92,37.25c0,15.19-7.85,27.41-17.8,27.41s-17.81-12.22-17.81-27.41c0-15.36,7.86-27.58,17.81-27.58S163.92,21.89,163.92,37.25Zm-71.22,0c0,20.6,23.92,37.36,53.77,37.36,29.67,0,53.42-16.76,53.42-37.36S176.14-.11,146.47-.11C116.62-.11,92.7,16.65,92.7,37.25Zm7,45.21c0,15.19-7.85,27.41-17.8,27.41S64.07,97.65,64.07,82.46c0-15.36,7.86-27.58,17.81-27.58S99.68,67.1,99.68,82.46Zm-71.22,0c0,20.6,23.91,37.36,53.77,37.36,29.67,0,53.41-16.76,53.41-37.36S111.9,45.11,82.23,45.11C52.37,45.11,28.46,61.87,28.46,82.46Z" transform="translate(0.11 0.11)"/>
  </g>
</svg>
