<svg id="Ebene_1" data-name="Ebene 1" xmlns="http://www.w3.org/2000/svg" viewBox="0 0 200 140.1">
  <defs>
    <style>
      .cls-1 {
        fill: none;
      }
    </style>
  </defs>
  <title>LT9</title>
  <g>
    <rect class="cls-1" width="200" height="140.1"/>
    <path d="M76.22,16.69C76.22,7.6,65.56.08,52.45.08S28.68,7.6,28.68,16.69c0,9.26,10.66,16.78,23.77,16.78S76.22,26,76.22,16.69ZM129,37.49H93l7.35,45.27H136Zm0,0c0-15.21,7.87-27.44,17.83-27.44s17.83,12.23,17.83,27.44c0,15.38-7.87,27.62-17.83,27.62S129,52.87,129,37.49Zm71.32,0c0-20.62-24-37.41-53.84-37.41C116.78.08,93,16.87,93,37.49S116.78,74.9,146.49,74.9C176.38,74.9,200.33,58.12,200.33,37.49ZM136,82.76H100.35c0,15.38-7.87,27.62-17.83,27.62S64.69,98.14,64.69,82.76V16.69h-36V82.76c0,20.63,23.77,37.41,53.49,37.41C112.06,120.17,136,103.39,136,82.76Z" transform="translate(-0.33 -0.08)"/>
  </g>
</svg>
