<svg id="Ebene_1" data-name="Ebene 1" xmlns="http://www.w3.org/2000/svg" viewBox="0 0 199.87 139.97">
  <defs>
    <style>
      .cls-1 {
        fill: none;
      }
    </style>
  </defs>
  <title>LT10</title>
  <g>
    <rect class="cls-1" width="199.82" height="139.97"/>
    <path d="M52.42,86.4c-13.1,0-23.75,7.51-23.75,16.77,0,9.07,10.65,16.58,23.75,16.58s23.74-7.51,23.74-16.58C76.16,93.91,65.51,86.4,52.42,86.4ZM82.1-.2C52.42-.2,28.67,16.57,28.67,37.17v66h36v-66c0-15.37,7.86-27.59,17.81-27.59S99.91,21.8,99.91,37.17h36C135.88,16.57,112-.2,82.1-.2Zm94.28,33.35c13.1,0,23.75-7.5,23.75-16.76,0-9.08-10.65-16.59-23.75-16.59s-23.74,7.51-23.74,16.59C152.64,25.65,163.29,33.15,176.38,33.15ZM92.93,82.39h35.61l7.34-45.22h-36Zm53.77,37.36c29.68,0,53.43-16.76,53.43-37.36v-66h-36v66c0,15.36-7.86,27.59-17.81,27.59s-17.81-12.23-17.81-27.59H92.93C92.93,103,116.85,119.75,146.7,119.75Z" transform="translate(-0.26 0.2)"/>
  </g>
</svg>
