<svg id="Ebene_1" data-name="Ebene 1" xmlns="http://www.w3.org/2000/svg" viewBox="0 0 200 140.1">
  <defs>
    <style>
      .cls-1 {
        fill: none;
      }
    </style>
  </defs>
  <title>LTB</title>
  <g>
    <rect class="cls-1" width="200" height="140.1"/>
    <path d="M82.41,9.81,82.06,0C52.38,0,28.64,16.79,28.64,37.39v66h36v-66C64.6,22,72.46,9.81,82.41,9.81Zm31.94,66.86c13.1,0,23.74-7.5,23.74-16.76,0-9.07-10.64-16.58-23.74-16.58S90.61,50.84,90.61,59.91C90.61,69.17,101.26,76.67,114.35,76.67Zm-62,10c-13.09,0-23.74,7.51-23.74,16.76,0,9.08,10.65,16.58,23.74,16.58s23.74-7.5,23.74-16.58C76.12,94.13,65.47,86.62,52.38,86.62Zm124-53.24c13.09,0,23.74-7.51,23.74-16.76C200.07,7.54,189.42,0,176.33,0s-23.75,7.5-23.75,16.58C152.58,25.87,163.23,33.38,176.33,33.38Zm-30,76.81.35,9.77c29.68,0,53.42-16.75,53.42-37.35v-66h-36v66C164.11,98,156.25,110.19,146.3,110.19Z" transform="translate(-0.38 -0.04)"/>
  </g>
</svg>
