<svg id="Ebene_1" data-name="Ebene 1" xmlns="http://www.w3.org/2000/svg" viewBox="0 0 200.12 140.12">
  <defs>
    <style>
      .cls-1 {
        fill: none;
      }
    </style>
  </defs>
  <title>LTC</title>
  <g>
    <path d="M95.57,120.06c3.32-4.9,6.82-4.9,10.15,0l-5.08-15.22Zm5.07-60c-8,0-14.34-11.2-14.34-25s6.3-25,14.34-25S115,21.2,115,35,108.69,60.05,100.64,60.05Zm50.05,69.81c-8.05,0-14.18-11.2-14.18-25s6.13-25,14.18-25S165,91,165,104.84,158.74,129.86,150.69,129.86Zm0,10c27.47,0,49.87-15.75,49.87-35,0-19.42-22.4-35.17-49.87-35.17-27.65,0-50,15.75-50,35.17C100.64,124.09,123,139.84,150.69,139.84Zm-50-35,38.15-34.12c-7.7,1.4-9.8-6.83-6.12-8.92l-32-.35Zm0,0V61.45l-32.37.35C72,63.89,70.2,72.12,62.5,70.72Zm-49.86,25c-8.05,0-14.35-11.2-14.35-25s6.3-25,14.35-25,14.34,11.2,14.34,25S58.82,129.86,50.78,129.86Zm0,10c27.47,0,49.86-15.75,49.86-35,0-19.42-22.39-35.17-49.86-35.17C23,69.67.56,85.42.56,104.84.56,124.09,23,139.84,50.78,139.84ZM100.64,70c27.48,0,49.87-15.75,49.87-35,0-19.42-22.39-35.17-49.87-35.17C72.82-.15,50.43,15.6,50.43,35,50.43,54.27,72.82,70,100.64,70Z" transform="translate(-0.43 0.15)"/>
    <rect class="cls-1" y="0.12" width="200" height="140"/>
  </g>
</svg>
