<svg id="Ebene_1" data-name="Ebene 1" xmlns="http://www.w3.org/2000/svg" viewBox="0 0 200.2 140.02">
  <defs>
    <style>
      .cls-1 {
        fill: none;
      }
    </style>
  </defs>
  <title>LTD</title>
  <g>
    <path d="M117.48,80.29l2.27-15.75L66.91,62.26c3.67,2.1,2.45,7.88-5.77,7.88H49.41V80.29Zm-118.29,25H35.06c0-13.82,6.3-25,14.35-25V70.14C21.59,70.14-.81,85.89-.81,105.31Zm23.8,35c13.12,0,23.8-7.53,23.8-16.8,0-9.1-10.68-16.63-23.8-16.63s-23.8,7.53-23.8,16.63C-.81,132.78,9.87,140.31,23,140.31Zm-23.8-16.8H35.06v-18.2H-.81Zm100.09-63c-8,0-14.35-11.2-14.35-25s6.3-25,14.35-25,14.35,11.2,14.35,25S107.33,60.52,99.28,60.52Zm50,69.81c-8,0-14.17-11.2-14.17-25s6.13-25,14.17-25,14.35,11.2,14.35,25S157.37,130.33,149.32,130.33Zm0,10c27.48,0,49.87-15.75,49.87-35,0-19.42-22.39-35.17-49.87-35.17-27.64,0-50,15.75-50,35.17C99.28,124.56,121.68,140.31,149.32,140.31Zm-31.84-60,20-9.1c-7.7,1.4-9.8-6.83-6.13-8.93l-32-.35Zm-18.2-9.8c27.47,0,49.87-15.75,49.87-35,0-19.42-22.4-35.17-49.87-35.17C71.46.32,49.06,16.07,49.06,35.49,49.06,54.74,71.46,70.49,99.28,70.49Z" transform="translate(0.81 -0.32)"/>
    <rect class="cls-1" x="0.2" y="0.02" width="200" height="140"/>
  </g>
</svg>
