<svg id="Ebene_1" data-name="Ebene 1" xmlns="http://www.w3.org/2000/svg" viewBox="0 0 200.13 140.03">
  <defs>
    <style>
      .cls-1 {
        fill: none;
      }
    </style>
  </defs>
  <title>LTE</title>
  <g>
    <path d="M0,104.75H35.9c0-13.82,6.3-25,14.35-25V69.58C22.43,69.58,0,85.33,0,104.75ZM176.24,33.18c13.12,0,23.79-7.52,23.79-16.79,0-9.1-10.67-16.63-23.79-16.63s-23.8,7.53-23.8,16.63C152.44,25.66,163.11,33.18,176.24,33.18ZM100.12,79.73h17.32l32.73-10.15h-50Zm50,50c-8,0-14.18-11.2-14.18-25s6.13-25,14.18-25,14.34,11.2,14.34,25S158.21,129.77,150.17,129.77Zm0,10c27.47,0,49.86-15.75,49.86-35,0-19.42-22.39-35.17-49.86-35.17-27.65,0-50,15.75-50,35.17C100.12,124,122.52,139.75,150.17,139.75Zm-50-60V69.58L67.75,61.71c3.68,2.1,2.45,7.87-5.77,7.87H50.25V79.73Zm-76.29,60c13.12,0,23.8-7.53,23.8-16.8,0-9.1-10.68-16.62-23.8-16.62S0,113.85,0,123C0,132.22,10.71,139.75,23.83,139.75ZM0,123H35.9v-18.2H0Zm100.09-53,17.5-.35c-13.3,0-31.85-13.47-31.85-29.92,0-20.47,5.78-29.75,14.35-29.75h76.29V-.24l-76.29.18c-27.82,0-50.22,15.57-50.22,35C49.9,54.18,72.3,69.93,100.12,69.93Z" transform="translate(0.09 0.24)"/>
    <rect class="cls-1" y="0.03" width="200" height="140"/>
  </g>
</svg>
