<svg id="Ebene_1" data-name="Ebene 1" xmlns="http://www.w3.org/2000/svg" viewBox="0 0 200.3 140.13">
  <defs>
    <style>
      .cls-1 {
        fill: none;
      }
    </style>
  </defs>
  <title>LTE</title>
  <g>
    <path d="M100.62,140c13.12,0,23.8-7.52,23.8-16.79,0-9.1-10.68-16.63-23.8-16.63s-23.8,7.53-23.8,16.63C76.82,132.52,87.5,140,100.62,140ZM.53,105.05H36.4c0-13.82,6.3-25,14.35-25V69.88C22.93,69.88.53,85.63.53,105.05ZM176.74,33.48c13.12,0,23.79-7.52,23.79-16.79,0-9.1-10.67-16.63-23.79-16.63s-23.8,7.53-23.8,16.63C152.94,26,163.61,33.48,176.74,33.48ZM100.62,80h50V69.88h-50Zm50-10.15V80c8,0,14.34,11.2,14.34,25s-6.3,25-14.34,25H100.8l-.18,10h50c27.47,0,49.86-15.74,49.86-35C200.53,85.63,178.14,69.88,150.67,69.88ZM100.62,80V69.88L68.25,62c3.68,2.1,2.45,7.88-5.77,7.88H50.75V80ZM24.33,140c13.12,0,23.8-7.52,23.8-16.79,0-9.1-10.68-16.63-23.8-16.63S.53,114.15.53,123.25C.53,132.52,11.21,140,24.33,140ZM.53,123.25H36.4v-18.2H.53Zm100.09-53,17.5-.35c-13.3,0-31.85-13.47-31.85-29.92,0-20.48,5.78-29.75,14.35-29.75h76.29V.06L100.62.24C72.8.24,50.4,15.81,50.4,35.23,50.4,54.48,72.8,70.23,100.62,70.23Z" transform="translate(-0.23 -0.06)"/>
    <rect class="cls-1" y="0.13" width="200" height="140"/>
  </g>
</svg>
