<svg id="Ebene_1" data-name="Ebene 1" xmlns="http://www.w3.org/2000/svg" viewBox="0 0 372.96 491.28">
  <defs>
    <style>
      .cls-1 {
        fill: none;
        stroke: #1d1d1b;
        stroke-miterlimit: 10;
        stroke-width: 0.65px;
      }

      .cls-2 {
        fill: #1d1d1b;
      }
    </style>
  </defs>
  <title>anatomie_2</title>
  <g>
    <path class="cls-1" d="M513.15,348.36c0,17.34-12.48,31.39-27.88,31.39s-27.88-14.05-27.88-31.39S469.88,317,485.27,317,513.15,331,513.15,348.36Zm27.88,0c0,21.67-25,39.24-55.76,39.24S429.52,370,429.52,348.36s25-39.25,55.75-39.25S541,326.68,541,348.36Z" transform="translate(-416 -305.72)"/>
    <path class="cls-1" d="M463.7,367.92H436.93c9.56,11.75,27.72,19.68,48.34,19.68C516,387.6,541,370.1,541,348.51s-25-39.1-55.72-39.1-55.71,17.5-55.71,39.1h28.13c0-17.23,12.42-31.17,27.58-31.17,15.57,0,28,13.94,28,31.17,0,17.08-12.43,31.16-28,31.16C476.53,379.67,468.75,375,463.7,367.92Zm-15.57-6.43c-10.24,0-18.57,5.88-18.57,13.13s8.33,13,18.57,13,18.57-5.88,18.57-13S458.37,361.49,448.13,361.49Z" transform="translate(-416 -305.72)"/>
    <path class="cls-2" d="M684.59,364.55H657.83c9.56,11.75,27.72,19.68,48.34,19.68,30.73,0,55.72-17.49,55.72-39.09s-25-39.1-55.72-39.1-55.72,17.5-55.72,39.1h28.13c0-17.23,12.43-31.17,27.59-31.17,15.57,0,28,13.94,28,31.17s-12.42,31.16-28,31.16c-8.74,0-16.52-4.64-21.58-11.75M669,358.12c-10.24,0-18.57,5.88-18.57,13.13s8.33,13,18.57,13,18.58-5.87,18.58-13-8.33-13.13-18.58-13.13" transform="translate(-416 -305.72)"/>
    <path class="cls-1" d="M684.59,364.55H657.83c9.56,11.75,27.72,19.68,48.34,19.68,30.73,0,55.72-17.49,55.72-39.09s-25-39.1-55.72-39.1-55.72,17.5-55.72,39.1h28.13c0-17.23,12.43-31.17,27.59-31.17,15.57,0,28,13.94,28,31.17s-12.42,31.16-28,31.16C697.43,376.3,689.65,371.66,684.59,364.55ZM669,358.12c-10.24,0-18.57,5.88-18.57,13.13s8.33,13,18.57,13,18.58-5.87,18.58-13S679.27,358.12,669,358.12Z" transform="translate(-416 -305.72)"/>
    <path class="cls-1" d="M513.33,524.77c23.13,0,41.64-13.12,41.64-29.25V443.87h-28v51.65c0,12-6.13,21.6-13.89,21.6s-13.88-9.57-13.88-21.6H471.41C471.41,511.65,490.05,524.77,513.33,524.77Zm-41.92-29.25h27.76l5.72-35.39h-28ZM536.46,457c10.21,0,18.51-5.87,18.51-13.11s-8.3-13-18.51-13-18.51,5.88-18.51,13S526.26,457,536.46,457ZM463,430.88c-23.14,0-41.64,13.12-41.64,29.25v51.66h28V460.13c0-12,6.13-21.59,13.88-21.59s13.61,9.56,13.61,21.59h28C504.89,444,486.24,430.88,463,430.88Zm-23.14,67.79c-10.2,0-18.5,5.87-18.5,13.12s8.3,13,18.5,13,18.51-5.88,18.51-13C458.34,504.54,450,498.67,439.83,498.67Zm18.58,13.08c0,7.2-8.3,13-18.54,13s-18.54-5.84-18.54-13,8.3-13,18.54-13S458.41,504.54,458.41,511.75Zm96.42-67.82c0,7.2-8.3,13-18.54,13s-18.54-5.84-18.54-13,8.3-13.05,18.54-13.05S554.83,436.72,554.83,443.93Zm-27.48,51.55c0,11.91-6.24,21.57-13.93,21.57s-13.94-9.66-13.94-21.57,6.24-21.57,13.94-21.57S527.35,483.57,527.35,495.48Zm27.87,0c0,16.24-18.72,29.41-41.8,29.41s-41.81-13.17-41.81-29.41,18.71-29.41,41.81-29.41S555.22,479.24,555.22,495.48Zm-78-35.29c0,11.91-6.24,21.57-13.93,21.57s-13.94-9.66-13.94-21.57,6.24-21.56,13.94-21.56S477.18,448.28,477.18,460.19Zm27.87,0c0,16.24-18.72,29.41-41.8,29.41s-41.81-13.17-41.81-29.41,18.71-29.41,41.81-29.41S505.05,444,505.05,460.19Z" transform="translate(-416 -305.72)"/>
    <path class="cls-2" d="M732.35,521.52c23.13,0,41.64-13.08,41.64-29.15V440.88H746v51.49c0,12-6.13,21.52-13.89,21.52s-13.88-9.53-13.88-21.52H690.43c0,16.07,18.64,29.15,41.92,29.15m-41.92-29.15h27.76l5.72-35.28h-28ZM755.48,454c10.21,0,18.51-5.85,18.51-13.07s-8.3-12.95-18.51-12.95S737,433.79,737,440.88,745.28,454,755.48,454m-73.49-26c-23.14,0-41.64,13.08-41.64,29.16v51.49h28V457.09c0-12,6.13-21.53,13.88-21.53s13.61,9.54,13.61,21.53h28c0-16.08-18.65-29.16-41.92-29.16M658.85,495.5c-10.2,0-18.5,5.86-18.5,13.08s8.3,12.94,18.5,12.94,18.51-5.86,18.51-12.94-8.3-13.08-18.51-13.08" transform="translate(-416 -305.72)"/>
    <path class="cls-1" d="M732.35,521.52c23.13,0,41.64-13.08,41.64-29.15V440.88H746v51.49c0,12-6.13,21.52-13.89,21.52s-13.88-9.53-13.88-21.52H690.43C690.43,508.44,709.07,521.52,732.35,521.52Zm-41.92-29.15h27.76l5.72-35.28h-28ZM755.48,454c10.21,0,18.51-5.85,18.51-13.07s-8.3-12.95-18.51-12.95S737,433.79,737,440.88,745.28,454,755.48,454Zm-73.49-26c-23.14,0-41.64,13.08-41.64,29.16v51.49h28V457.09c0-12,6.13-21.53,13.88-21.53s13.61,9.54,13.61,21.53h28C723.91,441,705.26,427.93,682,427.93ZM658.85,495.5c-10.2,0-18.5,5.86-18.5,13.08s8.3,12.94,18.5,12.94,18.51-5.86,18.51-12.94S669.06,495.5,658.85,495.5Z" transform="translate(-416 -305.72)"/>
    <path class="cls-2" d="M710.06,625.34l13.76-.27c-10.46,0-25-10.61-25-23.56,0-16.11,4.54-23.41,11.28-23.41h60v-8l-60,.14c-21.88,0-39.49,12.26-39.49,27.54s17.61,27.55,39.49,27.55m-78.71,41.73h28.21V652.75H631.35Zm18.71,13.23c10.32,0,18.72-5.93,18.72-13.23S660.38,654,650.06,654s-18.71,5.92-18.71,13.08,8.39,13.23,18.71,13.23m60-47.25v-8l-25.46-6.2c2.89,1.65,1.93,6.2-4.54,6.2h-9.22v8Zm39.36-8v8c6.33,0,11.28,8.82,11.28,19.7s-5,19.7-11.28,19.7H710.2l-.14,7.85h39.36c21.61,0,39.22-12.4,39.22-27.55S771,625.07,749.42,625.07m-39.36,8h39.36v-8H710.06Zm59.86-36.63c10.33,0,18.72-5.93,18.72-13.23s-8.39-13.08-18.72-13.08-18.71,5.92-18.71,13.08,8.39,13.23,18.71,13.23M631.35,652.75h28.21c0-10.88,5-19.7,11.28-19.7v-8c-21.88,0-39.49,12.39-39.49,27.68m78.71,27.55c10.32,0,18.72-5.93,18.72-13.23S720.38,654,710.06,654s-18.71,5.92-18.71,13.08,8.39,13.23,18.71,13.23" transform="translate(-416 -305.72)"/>
    <path class="cls-1" d="M710.06,625.34l13.76-.27c-10.46,0-25-10.61-25-23.56,0-16.11,4.54-23.41,11.28-23.41h60v-8l-60,.14c-21.88,0-39.49,12.26-39.49,27.54S688.18,625.34,710.06,625.34Zm-78.71,41.73h28.21V652.75H631.35Zm18.71,13.23c10.32,0,18.72-5.93,18.72-13.23S660.38,654,650.06,654s-18.71,5.92-18.71,13.08S639.74,680.3,650.06,680.3Zm60-47.25v-8l-25.46-6.2c2.89,1.65,1.93,6.2-4.54,6.2h-9.22v8Zm39.36-8v8c6.33,0,11.28,8.82,11.28,19.7s-5,19.7-11.28,19.7H710.2l-.14,7.85h39.36c21.61,0,39.22-12.4,39.22-27.55S771,625.07,749.42,625.07Zm-39.36,8h39.36v-8H710.06Zm59.86-36.63c10.33,0,18.72-5.93,18.72-13.23s-8.39-13.08-18.72-13.08-18.71,5.92-18.71,13.08S759.6,596.42,769.92,596.42ZM631.35,652.75h28.21c0-10.88,5-19.7,11.28-19.7v-8C649,625.07,631.35,637.46,631.35,652.75Zm78.71,27.55c10.32,0,18.72-5.93,18.72-13.23S720.38,654,710.06,654s-18.71,5.92-18.71,13.08S699.74,680.3,710.06,680.3Z" transform="translate(-416 -305.72)"/>
    <path class="cls-1" d="M534.21,675.39c-6.15,0-11.14-8.75-11.14-19.54s5-19.53,11.14-19.53,11.15,8.74,11.15,19.53S540.37,675.39,534.21,675.39Zm0-46.89c-21.55,0-39,12.25-39,27.35s17.46,27.36,39,27.36,39-12.25,39-27.36S555.76,628.5,534.21,628.5Zm-78,46.89c-6.16,0-11.15-8.75-11.15-19.54s5-19.53,11.15-19.53,11.15,8.74,11.15,19.53S462.34,675.39,456.18,675.39Zm0-46.89c-21.55,0-39,12.25-39,27.35s17.47,27.36,39,27.36,39-12.25,39-27.36S477.73,628.5,456.18,628.5Zm38.63-46.89c6.15,0,11.14,8.74,11.14,19.54s-5,19.53-11.14,19.53-11.15-8.74-11.15-19.53S488.65,581.61,494.81,581.61Zm0,46.89c21.54,0,39-12.25,39-27.35s-17.47-27.36-39-27.36-39,12.25-39,27.36S473.26,628.5,494.81,628.5Z" transform="translate(-416 -305.72)"/>
    <path class="cls-1" d="M495,628.71l13.76-.27c-10.46,0-25-10.61-25-23.56,0-16.11,4.54-23.41,11.28-23.41h60v-8l-60,.14c-21.88,0-39.5,12.26-39.5,27.54S473.16,628.71,495,628.71Zm-78.72,41.73h28.22V656.12H416.32ZM435,683.67c10.32,0,18.72-5.93,18.72-13.23s-8.4-13.08-18.72-13.08-18.72,5.92-18.72,13.08S424.72,683.67,435,683.67Zm60-47.25v-8l-25.46-6.2c2.89,1.65,1.93,6.2-4.54,6.2h-9.22v8Zm39.36-8v8c6.33,0,11.28,8.82,11.28,19.7s-4.95,19.7-11.28,19.7H495.18l-.14,7.85H534.4c21.6,0,39.22-12.4,39.22-27.55S556,628.44,534.4,628.44Zm-39.36,8H534.4v-8H495Zm59.86-36.63c10.32,0,18.72-5.93,18.72-13.23s-8.4-13.08-18.72-13.08-18.71,5.92-18.71,13.08S544.58,599.79,554.9,599.79ZM416.32,656.12h28.22c0-10.88,4.95-19.7,11.28-19.7v-8C433.94,628.44,416.32,640.83,416.32,656.12ZM495,683.67c10.32,0,18.72-5.93,18.72-13.23s-8.4-13.08-18.72-13.08-18.72,5.92-18.72,13.08S484.72,683.67,495,683.67Z" transform="translate(-416 -305.72)"/>
    <path class="cls-2" d="M707.29,797c15.5,0,28.1-13.17,28.1-29.58S722.79,738,707.29,738,679,751.15,679,767.42,691.64,797,707.29,797" transform="translate(-416 -305.72)"/>
  </g>
</svg>
