<svg id="Ebene_1" data-name="Ebene 1" xmlns="http://www.w3.org/2000/svg" xmlns:xlink="http://www.w3.org/1999/xlink" viewBox="0 0 307.82 406.82">
  <defs>
    <style>
      .cls-1, .cls-3 {
        fill: none;
      }

      .cls-2 {
        clip-path: url(#clip-path);
      }

      .cls-3 {
        stroke: #1d1d1b;
        stroke-miterlimit: 10;
        stroke-width: 0.65px;
      }

      .cls-4 {
        fill: #1d1d1b;
      }
    </style>
    <clipPath id="clip-path" transform="translate(-346 -244.18)">
      <rect class="cls-1" x="346" y="244.18" width="307.82" height="406.82"/>
    </clipPath>
  </defs>
  <title>anatomie_1</title>
  <g class="cls-2">
    <path class="cls-3" d="M409.92,339.78c0,4.09-4.73,7.41-10.55,7.41s-10.56-3.32-10.56-7.41,4.73-7.42,10.56-7.42S409.92,335.68,409.92,339.78Zm0,14.82c0,4.1-4.73,7.42-10.55,7.42s-10.56-3.32-10.56-7.42,4.73-7.41,10.56-7.41S409.92,350.51,409.92,354.6Zm0,14.83c0,4.1-4.73,7.41-10.55,7.41s-10.56-3.31-10.56-7.41,4.73-7.41,10.56-7.41S409.92,365.34,409.92,369.43Zm-21.11-29.65c0,4.09-4.72,7.41-10.55,7.41s-10.55-3.32-10.55-7.41,4.72-7.42,10.55-7.42S388.81,335.68,388.81,339.78Zm0,14.82c0,4.1-4.72,7.42-10.55,7.42s-10.55-3.32-10.55-7.42,4.72-7.41,10.55-7.41S388.81,350.51,388.81,354.6Zm0,14.83c0,4.1-4.72,7.41-10.55,7.41s-10.55-3.31-10.55-7.41,4.72-7.41,10.55-7.41S388.81,365.34,388.81,369.43Zm-21.1-29.65c0,4.09-4.73,7.41-10.55,7.41s-10.56-3.32-10.56-7.41,4.73-7.42,10.56-7.42S367.71,335.68,367.71,339.78Zm0,14.82c0,4.1-4.73,7.42-10.55,7.42s-10.56-3.32-10.56-7.42,4.73-7.41,10.56-7.41S367.71,350.51,367.71,354.6Zm0,14.83c0,4.1-4.73,7.41-10.55,7.41s-10.56-3.31-10.56-7.41,4.73-7.41,10.56-7.41S367.71,365.34,367.71,369.43Zm26.38-97.18c0,9.82-7.09,17.79-15.83,17.79s-15.83-8-15.83-17.79,7.09-17.8,15.83-17.8S394.09,262.42,394.09,272.25Zm15.83,0c0,12.28-14.18,22.24-31.66,22.24s-31.66-10-31.66-22.24S360.78,250,378.26,250,409.92,260,409.92,272.25Zm-42.21,182.5c0,4.09-4.73,7.41-10.55,7.41s-10.56-3.32-10.56-7.41,4.73-7.42,10.56-7.42S367.71,450.65,367.71,454.75Zm26.1,73.45C393.81,538,386.72,546,378,546s-15.83-8-15.83-17.79,7.09-17.8,15.83-17.8S393.81,518.37,393.81,528.2Zm15.83,0c0,12.28-14.17,22.24-31.66,22.24s-31.65-10-31.65-22.24S360.5,506,378,506,409.64,515.91,409.64,528.2Zm-15.55-88.28c0,9.83-7.09,17.79-15.83,17.79s-15.83-8-15.83-17.79,7.09-17.79,15.83-17.79S394.09,430.09,394.09,439.92Zm15.83,0c0,12.28-14.18,22.24-31.66,22.24s-31.66-10-31.66-22.24,14.18-22.24,31.66-22.24S409.92,427.64,409.92,439.92Z" transform="translate(-346 -244.18)"/>
    <path class="cls-3" d="M365.73,539.28h-15.2c5.43,6.66,15.74,11.16,27.45,11.16,17.45,0,31.64-9.92,31.64-22.16S395.43,506.12,378,506.12s-31.63,9.92-31.63,22.16h16c0-9.76,7.06-17.66,15.66-17.66,8.84,0,15.9,7.9,15.9,17.66s-7.06,17.66-15.9,17.66A15.13,15.13,0,0,1,365.73,539.28Zm-8.84-3.64c-5.81,0-10.54,3.33-10.54,7.44s4.73,7.36,10.54,7.36,10.55-3.33,10.55-7.36S362.71,535.64,356.89,535.64Z" transform="translate(-346 -244.18)"/>
    <path class="cls-4" d="M365.73,627.9h-15.2c5.43,6.66,15.74,11.16,27.45,11.16,17.45,0,31.64-9.92,31.64-22.16S395.43,594.74,378,594.74s-31.63,9.92-31.63,22.16h16c0-9.76,7.06-17.66,15.66-17.66,8.84,0,15.9,7.9,15.9,17.66s-7.06,17.66-15.9,17.66a15.13,15.13,0,0,1-12.25-6.66m-8.84-3.64c-5.81,0-10.54,3.33-10.54,7.44s4.73,7.36,10.54,7.36,10.55-3.33,10.55-7.36-4.73-7.44-10.55-7.44" transform="translate(-346 -244.18)"/>
    <path class="cls-3" d="M365.73,627.9h-15.2c5.43,6.66,15.74,11.16,27.45,11.16,17.45,0,31.64-9.92,31.64-22.16S395.43,594.74,378,594.74s-31.63,9.92-31.63,22.16h16c0-9.76,7.06-17.66,15.66-17.66,8.84,0,15.9,7.9,15.9,17.66s-7.06,17.66-15.9,17.66A15.13,15.13,0,0,1,365.73,627.9Zm-8.84-3.64c-5.81,0-10.54,3.33-10.54,7.44s4.73,7.36,10.54,7.36,10.55-3.33,10.55-7.36S362.71,624.26,356.89,624.26Z" transform="translate(-346 -244.18)"/>
    <path class="cls-3" d="M464.71,640.16c0,4.09-4.72,7.4-10.54,7.4s-10.53-3.31-10.53-7.4,4.72-7.4,10.53-7.4S464.71,636.07,464.71,640.16Zm54.78-38.47c0,4.08-4.71,7.39-10.53,7.39s-10.54-3.31-10.54-7.39,4.72-7.4,10.54-7.4S519.49,597.6,519.49,601.69ZM495.91,559c13.15,0,23.66-7.44,23.66-16.59V513.07H503.65v29.31c0,6.82-3.48,12.25-7.89,12.25s-7.89-5.43-7.89-12.25H472.1C472.1,551.53,482.69,559,495.91,559ZM472.1,542.38h15.77l3.25-20.08H475.19Zm37-21.86c5.8,0,10.51-3.34,10.51-7.45s-4.71-7.36-10.51-7.36-10.52,3.33-10.52,7.36S503.26,520.52,509.06,520.52ZM467.3,505.71c-13.14,0-23.66,7.44-23.66,16.59v29.31h15.93V522.3c0-6.82,3.48-12.25,7.89-12.25s7.73,5.43,7.73,12.25h15.93C491.12,513.15,480.52,505.71,467.3,505.71Zm-13.14,38.45c-5.8,0-10.52,3.34-10.52,7.45s4.72,7.36,10.52,7.36,10.51-3.33,10.51-7.36S460,544.16,454.16,544.16Zm10.55,7.42c0,4.09-4.72,7.4-10.54,7.4s-10.53-3.31-10.53-7.4,4.72-7.39,10.53-7.39S464.71,547.5,464.71,551.58Zm54.78-38.47c0,4.09-4.71,7.4-10.53,7.4s-10.54-3.31-10.54-7.4,4.72-7.4,10.54-7.4S519.49,509,519.49,513.11Zm-54.67-48.87c0,4.1-4.73,7.42-10.56,7.42s-10.56-3.32-10.56-7.42,4.73-7.41,10.56-7.41S464.82,460.15,464.82,464.24Zm54.9-38.56c0,4.1-4.73,7.42-10.56,7.42s-10.56-3.32-10.56-7.42,4.73-7.41,10.56-7.41S519.72,421.59,519.72,425.68ZM503.88,542.36c0,6.75-3.54,12.23-7.92,12.23S488,549.11,488,542.36s3.55-12.24,7.92-12.24S503.88,535.6,503.88,542.36Zm15.84,0c0,9.21-10.64,16.68-23.76,16.68s-23.75-7.47-23.75-16.68,10.63-16.69,23.75-16.69S519.72,533.14,519.72,542.36Zm-44.35-20c0,6.75-3.54,12.23-7.91,12.23s-7.92-5.48-7.92-12.23,3.54-12.24,7.92-12.24S475.37,515.58,475.37,522.34Zm15.84,0c0,9.21-10.63,16.68-23.75,16.68s-23.76-7.47-23.76-16.68,10.64-16.69,23.76-16.69S491.21,513.12,491.21,522.34ZM503.88,455c0,6.76-3.54,12.24-7.92,12.24S488,461.73,488,455s3.55-12.23,7.92-12.23S503.88,448.22,503.88,455Zm15.84,0c0,9.22-10.64,16.69-23.76,16.69s-23.75-7.47-23.75-16.69,10.63-16.68,23.75-16.68S519.72,445.76,519.72,455Zm-44.35-20c0,6.76-3.54,12.24-7.91,12.24s-7.92-5.48-7.92-12.24,3.54-12.23,7.92-12.23S475.37,428.2,475.37,435Zm15.84,0c0,9.22-10.63,16.69-23.75,16.69S443.7,444.17,443.7,435s10.64-16.68,23.76-16.68S491.21,425.74,491.21,435Zm1.06-75.88c0,4.1-4.73,7.41-10.56,7.41s-10.56-3.31-10.56-7.41,4.73-7.41,10.56-7.41S492.27,355,492.27,359.07Zm0,19.28c0,4.09-4.73,7.41-10.56,7.41s-10.56-3.32-10.56-7.41,4.73-7.42,10.56-7.42S492.27,374.25,492.27,378.35Zm0-38.56c0,4.1-4.73,7.42-10.56,7.42s-10.56-3.32-10.56-7.42,4.73-7.41,10.56-7.41S492.27,335.7,492.27,339.79Zm-27.45,19.28c0,4.1-4.73,7.41-10.56,7.41s-10.56-3.31-10.56-7.41,4.73-7.41,10.56-7.41S464.82,355,464.82,359.07Zm54.9,0c0,4.1-4.73,7.41-10.56,7.41s-10.56-3.31-10.56-7.41,4.73-7.41,10.56-7.41S519.72,355,519.72,359.07Zm0,19.28c0,4.09-4.73,7.41-10.56,7.41s-10.56-3.32-10.56-7.41,4.73-7.42,10.56-7.42S519.72,374.25,519.72,378.35Zm-54.9,0c0,4.09-4.73,7.41-10.56,7.41s-10.56-3.32-10.56-7.41,4.73-7.42,10.56-7.42S464.82,374.25,464.82,378.35Zm54.9-38.56c0,4.1-4.73,7.42-10.56,7.42s-10.56-3.32-10.56-7.42,4.73-7.41,10.56-7.41S519.72,335.7,519.72,339.79Zm-54.9,0c0,4.1-4.73,7.42-10.56,7.42s-10.56-3.32-10.56-7.42,4.73-7.41,10.56-7.41S464.82,335.7,464.82,339.79Zm39.06-53.08c0,6.76-3.54,12.23-7.92,12.23S488,293.47,488,286.71s3.55-12.24,7.92-12.24S503.88,280,503.88,286.71Zm15.84,0c0,9.21-10.64,16.68-23.76,16.68s-23.75-7.47-23.75-16.68S482.84,270,496,270,519.72,277.5,519.72,286.71Zm-44.35-20c0,6.76-3.54,12.23-7.91,12.23s-7.92-5.47-7.92-12.23,3.54-12.24,7.92-12.24S475.37,259.93,475.37,266.69Zm15.84,0c0,9.21-10.63,16.68-23.75,16.68s-23.76-7.47-23.76-16.68S454.34,250,467.46,250,491.21,257.48,491.21,266.69Z" transform="translate(-346 -244.18)"/>
    <path class="cls-4" d="M495.91,647.55c13.15,0,23.66-7.42,23.66-16.54V601.8H503.64V631c0,6.8-3.48,12.21-7.88,12.21s-7.89-5.41-7.89-12.21H472.09c0,9.12,10.6,16.54,23.82,16.54M472.09,631h15.78l3.25-20H475.19Zm37-21.79c5.8,0,10.51-3.32,10.51-7.42s-4.71-7.34-10.51-7.34-10.52,3.32-10.52,7.34,4.72,7.42,10.52,7.42M467.3,594.46c-13.15,0-23.66,7.42-23.66,16.54v29.21h15.93V611c0-6.8,3.48-12.21,7.88-12.21s7.74,5.41,7.74,12.21h15.93c0-9.12-10.6-16.54-23.82-16.54m-13.15,38.33c-5.8,0-10.51,3.32-10.51,7.42s4.71,7.34,10.51,7.34,10.52-3.32,10.52-7.34-4.72-7.42-10.52-7.42" transform="translate(-346 -244.18)"/>
    <path class="cls-3" d="M495.91,647.55c13.15,0,23.66-7.42,23.66-16.54V601.8H503.64V631c0,6.8-3.48,12.21-7.88,12.21s-7.89-5.41-7.89-12.21H472.09C472.09,640.13,482.69,647.55,495.91,647.55ZM472.09,631h15.78l3.25-20H475.19Zm37-21.79c5.8,0,10.51-3.32,10.51-7.42s-4.71-7.34-10.51-7.34-10.52,3.32-10.52,7.34S503.26,609.22,509.06,609.22ZM467.3,594.46c-13.15,0-23.66,7.42-23.66,16.54v29.21h15.93V611c0-6.8,3.48-12.21,7.88-12.21s7.74,5.41,7.74,12.21h15.93C491.12,601.88,480.52,594.46,467.3,594.46Zm-13.15,38.33c-5.8,0-10.51,3.32-10.51,7.42s4.71,7.34,10.51,7.34,10.52-3.32,10.52-7.34S460,632.79,454.15,632.79Z" transform="translate(-346 -244.18)"/>
    <path class="cls-3" d="M652.7,420.42c0,4.09-4.73,7.41-10.56,7.41s-10.56-3.32-10.56-7.41,4.73-7.41,10.56-7.41S652.7,416.33,652.7,420.42Zm-33.8,47.44c0,4.09-4.72,7.41-10.56,7.41s-10.56-3.32-10.56-7.41,4.73-7.42,10.56-7.42S618.9,463.76,618.9,467.86Zm-33.79,0c0,4.09-4.73,7.41-10.57,7.41S564,472,564,467.86s4.73-7.42,10.56-7.42S585.11,463.76,585.11,467.86Zm45.41,3c-3.5,0-6.33-5-6.33-11.12s2.83-11.12,6.33-11.12,6.34,5,6.34,11.12S634,470.82,630.52,470.82Zm0-26.68c-12.25,0-22.18,7-22.18,15.56s9.93,15.57,22.18,15.57,22.18-7,22.18-15.57S642.77,444.14,630.52,444.14Zm-44.36,26.68c-3.5,0-6.33-5-6.33-11.12s2.83-11.12,6.33-11.12,6.34,5,6.34,11.12S589.66,470.82,586.16,470.82Zm0-26.68c-12.25,0-22.18,7-22.18,15.56s9.93,15.57,22.18,15.57,22.18-7,22.18-15.57S598.41,444.14,586.16,444.14Zm22.18-26.69c3.5,0,6.34,5,6.34,11.12s-2.84,11.12-6.34,11.12-6.33-5-6.33-11.12S604.84,417.45,608.34,417.45Zm0,26.69c12.25,0,22.18-7,22.18-15.57S620.59,413,608.34,413s-22.18,7-22.18,15.56S596.09,444.14,608.34,444.14ZM652.7,334.47c0,4.09-4.73,7.41-10.56,7.41s-10.56-3.32-10.56-7.41,4.73-7.41,10.56-7.41S652.7,330.37,652.7,334.47Zm0,47.44c0,4.09-4.73,7.41-10.56,7.41s-10.56-3.32-10.56-7.41,4.73-7.42,10.56-7.42S652.7,377.81,652.7,381.91Zm0-23.72c0,4.09-4.73,7.41-10.56,7.41s-10.56-3.32-10.56-7.41,4.73-7.42,10.56-7.42S652.7,354.09,652.7,358.19Zm-33.8-23.72c0,4.09-4.72,7.41-10.56,7.41s-10.56-3.32-10.56-7.41,4.73-7.41,10.56-7.41S618.9,330.37,618.9,334.47Zm0,47.44c0,4.09-4.72,7.41-10.56,7.41s-10.56-3.32-10.56-7.41,4.73-7.42,10.56-7.42S618.9,377.81,618.9,381.91Zm0-23.72c0,4.09-4.72,7.41-10.56,7.41s-10.56-3.32-10.56-7.41,4.73-7.42,10.56-7.42S618.9,354.09,618.9,358.19Zm-33.79-23.72c0,4.09-4.73,7.41-10.57,7.41S564,338.56,564,334.47s4.73-7.41,10.56-7.41S585.11,330.37,585.11,334.47Zm0,47.44c0,4.09-4.73,7.41-10.57,7.41S564,386,564,381.91s4.73-7.42,10.56-7.42S585.11,377.81,585.11,381.91Zm0-23.72c0,4.09-4.73,7.41-10.57,7.41S564,362.28,564,358.19s4.73-7.42,10.56-7.42S585.11,354.09,585.11,358.19Zm45.41-55.87c-3.5,0-6.33-5-6.33-11.11s2.83-11.12,6.33-11.12,6.34,5,6.34,11.12S634,302.32,630.52,302.32Zm0-26.68c-12.25,0-22.18,7-22.18,15.57s9.93,15.56,22.18,15.56,22.18-7,22.18-15.56S642.77,275.64,630.52,275.64Zm-44.36,26.68c-3.5,0-6.33-5-6.33-11.11s2.83-11.12,6.33-11.12,6.34,5,6.34,11.12S589.66,302.32,586.16,302.32Zm0-26.68c-12.25,0-22.18,7-22.18,15.57s9.93,15.56,22.18,15.56,22.18-7,22.18-15.56S598.41,275.64,586.16,275.64ZM608.34,249c3.5,0,6.34,5,6.34,11.12s-2.84,11.11-6.34,11.11-6.33-5-6.33-11.11S604.84,249,608.34,249Zm0,26.68c12.25,0,22.18-7,22.18-15.56s-9.93-15.57-22.18-15.57-22.18,7-22.18,15.57S596.09,275.64,608.34,275.64Z" transform="translate(-346 -244.18)"/>
    <path class="cls-4" d="M608.38,619.48l7.82-.16c-5.94,0-14.23-6-14.23-13.37,0-9.15,2.58-13.3,6.41-13.3h34.11v-4.53l-34.11.08c-12.44,0-22.45,7-22.45,15.64s10,15.64,22.45,15.64m-44.75,23.69h16V635h-16Zm10.64,7.51c5.87,0,10.64-3.37,10.64-7.51s-4.77-7.43-10.64-7.43-10.64,3.36-10.64,7.43,4.77,7.51,10.64,7.51m34.11-26.83v-4.53l-14.47-3.52c1.64.94,1.09,3.52-2.58,3.52h-5.25v4.53Zm22.38-4.53v4.53c3.6,0,6.41,5,6.41,11.19s-2.81,11.18-6.41,11.18h-22.3l-.08,4.46h22.38c12.28,0,22.29-7,22.29-15.64s-10-15.72-22.29-15.72m-22.38,4.53h22.38v-4.53H608.38Zm34-20.8c5.87,0,10.64-3.36,10.64-7.5s-4.77-7.43-10.64-7.43-10.64,3.36-10.64,7.43,4.78,7.5,10.64,7.5m-78.78,32h16c0-6.18,2.82-11.19,6.41-11.19v-4.53c-12.43,0-22.45,7-22.45,15.72m44.75,15.64c5.87,0,10.64-3.37,10.64-7.51s-4.77-7.43-10.64-7.43-10.64,3.36-10.64,7.43,4.77,7.51,10.64,7.51" transform="translate(-346 -244.18)"/>
    <path class="cls-3" d="M608.38,619.48l7.82-.16c-5.94,0-14.23-6-14.23-13.37,0-9.15,2.58-13.3,6.41-13.3h34.11v-4.53l-34.11.08c-12.44,0-22.45,7-22.45,15.64S595.94,619.48,608.38,619.48Zm-44.75,23.69h16V635h-16Zm10.64,7.51c5.87,0,10.64-3.37,10.64-7.51s-4.77-7.43-10.64-7.43-10.64,3.36-10.64,7.43S568.4,650.68,574.27,650.68Zm34.11-26.83v-4.53l-14.47-3.52c1.64.94,1.09,3.52-2.58,3.52h-5.25v4.53Zm22.38-4.53v4.53c3.6,0,6.41,5,6.41,11.19s-2.81,11.18-6.41,11.18h-22.3l-.08,4.46h22.38c12.28,0,22.29-7,22.29-15.64S643,619.32,630.76,619.32Zm-22.38,4.53h22.38v-4.53H608.38Zm34-20.8c5.87,0,10.64-3.36,10.64-7.5s-4.77-7.43-10.64-7.43-10.64,3.36-10.64,7.43S636.55,603.05,642.41,603.05Zm-78.78,32h16c0-6.18,2.82-11.19,6.41-11.19v-4.53C573.65,619.32,563.63,626.36,563.63,635Zm44.75,15.64c5.87,0,10.64-3.37,10.64-7.51s-4.77-7.43-10.64-7.43-10.64,3.36-10.64,7.43S602.51,650.68,608.38,650.68Z" transform="translate(-346 -244.18)"/>
    <path class="cls-3" d="M631.09,557.94c-3.5,0-6.33-5-6.33-11.09s2.83-11.09,6.33-11.09,6.34,5,6.34,11.09S634.59,557.94,631.09,557.94Zm0-26.62c-12.25,0-22.18,6.95-22.18,15.53s9.93,15.53,22.18,15.53,22.18-7,22.18-15.53S643.34,531.32,631.09,531.32Zm-44.36,26.62c-3.5,0-6.33-5-6.33-11.09s2.83-11.09,6.33-11.09,6.34,5,6.34,11.09S590.23,557.94,586.73,557.94Zm0-26.62c-12.25,0-22.18,6.95-22.18,15.53s9.93,15.53,22.18,15.53,22.18-7,22.18-15.53S599,531.32,586.73,531.32Zm22-26.62c3.5,0,6.34,5,6.34,11.09s-2.84,11.09-6.34,11.09-6.33-5-6.33-11.09S605.19,504.7,608.69,504.7Zm0,26.62c12.25,0,22.18-7,22.18-15.53s-9.93-15.53-22.18-15.53-22.18,6.95-22.18,15.53S596.44,531.32,608.69,531.32Z" transform="translate(-346 -244.18)"/>
    <path class="cls-3" d="M608.83,531.44l7.82-.16c-5.95,0-14.24-6-14.24-13.37,0-9.15,2.58-13.29,6.42-13.29h34.11v-4.54l-34.11.08c-12.44,0-22.46,7-22.46,15.64S596.39,531.44,608.83,531.44Zm-44.75,23.69h16V547h-16Zm10.64,7.51c5.86,0,10.64-3.36,10.64-7.51s-4.78-7.43-10.64-7.43-10.64,3.37-10.64,7.43S568.85,562.64,574.72,562.64Zm34.11-26.82v-4.54l-14.48-3.52c1.65.94,1.1,3.52-2.58,3.52h-5.24v4.54Zm22.37-4.54v4.54c3.6,0,6.42,5,6.42,11.18s-2.82,11.18-6.42,11.18H608.9l-.07,4.46H631.2c12.28,0,22.3-7,22.3-15.64S643.48,531.28,631.2,531.28Zm-22.37,4.54H631.2v-4.54H608.83Zm34-20.8c5.87,0,10.64-3.36,10.64-7.51s-4.77-7.43-10.64-7.43-10.64,3.37-10.64,7.43S637,515,642.86,515Zm-78.78,32h16c0-6.18,2.82-11.18,6.42-11.18v-4.54C574.09,531.28,564.08,538.32,564.08,547Zm44.75,15.64c5.86,0,10.64-3.36,10.64-7.51s-4.78-7.43-10.64-7.43-10.64,3.37-10.64,7.43S603,562.64,608.83,562.64Z" transform="translate(-346 -244.18)"/>
  </g>
</svg>
