<svg id="Ebene_1" data-name="Ebene 1" xmlns="http://www.w3.org/2000/svg" viewBox="0 0 263.36 37.94">
  <defs>
    <style>
      .cls-1 {
        fill: red;
      }
    </style>
  </defs>
  <title>fake-hindi_2</title>
  <g>
    <path class="cls-1" d="M117.27,202.87c-.06,0-.12-.06-.18-.06-1.46-.29-2.45-1.22-2.45-2.33a2,2,0,0,1,.7-1.46,4.65,4.65,0,0,1-2.1.47c-1.92,0-3.49-1.05-3.49-2.39s1.57-2.45,3.49-2.45,3.44,1.11,3.44,2.45a2,2,0,0,1-.64,1.4,4.58,4.58,0,0,1,2-.47c1.92,0,3.5,1.11,3.5,2.45s-1.58,2.45-3.5,2.45A3.42,3.42,0,0,1,117.27,202.87Zm4.19,5.71c0,3.2-2.33,5.83-5.19,5.83s-5.18-2.63-5.18-5.83,2.33-5.83,5.18-5.83a3.73,3.73,0,0,1,.82.06c.06,0,.12.06.18.06A5.67,5.67,0,0,1,121.46,208.58Zm25-3.21V215c0,3-3.44,5.42-7.75,5.42s-7.87-2.45-7.87-5.42l.24-1.28c-.59,0-1.17.11-1.75.11-4.37,0-7.87-2.44-7.87-5.42s3.5-5.47,7.87-5.47,7.81,2.44,7.81,5.47a3,3,0,0,1-.24,1.23L136,215c0,2.21,1.16,4,2.62,4s2.57-1.81,2.57-4v-7.52a2.53,2.53,0,0,1-1.69-2.1c0-1.34,1.57-2.44,3.49-2.44S146.46,204,146.46,205.37Zm-17.13-2.44c-4.31,0-7.81-2.45-7.81-5.42s3.5-5.42,7.81-5.42c.64,0,1.22.06,1.8.11a3.17,3.17,0,0,1-.23-1.28c0-3,3.44-5.42,7.75-5.42s7.87,2.45,7.87,5.42-3.5,5.42-7.87,5.42a17.34,17.34,0,0,1-1.75-.12,3.09,3.09,0,0,1,.24,1.29C137.14,200.48,133.64,202.93,129.33,202.93Zm2.27,7.34.29-1.87c0-2.21-1.16-4-2.62-4s-2.62,1.81-2.62,4,1.16,4,2.62,4C130.26,212.42,131.13,211.55,131.6,210.27Zm.35-12.76c0-2.22-1.11-4-2.56-4s-2.63,1.8-2.63,4,1.17,4,2.63,4S132,199.72,132,197.51Zm4.2-6.59c0,2.22,1.1,4,2.56,4s2.62-1.8,2.62-4-1.16-4-2.62-4S136.15,188.71,136.15,190.92Z" transform="translate(-109.75 -182.47)"/>
    <path class="cls-1" d="M160.39,204.56c0,3.2-2.33,5.82-5.18,5.82s-5.19-2.62-5.19-5.82,2.33-5.83,5.19-5.83S160.39,201.35,160.39,204.56Zm-4.89-7.46c0-1.34,1.57-2.45,3.49-2.45s3.44,1.11,3.44,2.45-1.57,2.39-3.44,2.39S155.5,198.44,155.5,197.1Zm12,5.83c4.37,0,7.81,2.38,7.81,5.42a4.34,4.34,0,0,1-.18,1.22l-.87,5.36c0,2.27,1.11,4,2.56,4s2.63-1.75,2.63-4v-7.52a2.46,2.46,0,0,1-1.69-2.1c0-1.34,1.57-2.38,3.43-2.38s3.5,1,3.5,2.38v9.62c0,3-3.5,5.48-7.81,5.48s-7.81-2.45-7.81-5.48l.18-1.28a16.27,16.27,0,0,1-1.75.11c-4.31,0-7.81-2.38-7.81-5.41S163.19,202.93,167.5,202.93Zm22-17.89v2.62c0,2.85-3.27,5.13-7.34,5.13H180.5c-1.11,0-1.34.75-.88,1.1a4.84,4.84,0,0,1,2.62,4c0,2.79-3.26,5.07-7.28,5.07H163.83c-1.92,0-3.44-1.05-3.44-2.39s1.57-2.45,3.5-2.45,3.44,1.11,3.44,2.45a1.71,1.71,0,0,1-.3.93H175c1.22,0,2.1-1.34,2.1-4.31,0-2.45-2.74-4.37-4.66-4.37h-4.72c-4,0-7.29-2.28-7.29-5.13s3.26-5.07,7.29-5.07,7.28,2.27,7.28,5.07a4.44,4.44,0,0,1-2.21,3.67h9.44c1.22,0,2.09-1.63,2.09-3.67v-.58a2.4,2.4,0,0,1-1.69-2c0-1.34,1.58-2.45,3.44-2.45S189.53,183.7,189.53,185Zm-24.65,23.31c0,2.21,1.16,4,2.62,4,1,0,1.87-.94,2.27-2.28l.29-1.74c0-2.22-1.16-4-2.56-4S164.88,206.13,164.88,208.35Zm2.8-17c1.16,0,2-1.63,2-3.67s-.87-3.61-2-3.61-2.1,1.63-2.1,3.61S166.51,191.33,167.68,191.33Z" transform="translate(-109.75 -182.47)"/>
    <path class="cls-1" d="M206.49,205.31c0,1.35-1.57,2.45-3.5,2.45a4.61,4.61,0,0,1-2-.46,2.13,2.13,0,0,1,.7,1.45c0,1.34-1.57,2.45-3.49,2.45a4.45,4.45,0,0,1-2-.47,2,2,0,0,1,.64,1.4c0,1.34-1.58,2.45-3.5,2.45s-3.5-1.11-3.5-2.45,1.58-2.44,3.5-2.44a4.57,4.57,0,0,1,2,.46,2,2,0,0,1-.64-1.4c0-1.34,1.57-2.44,3.5-2.44a4,4,0,0,1,2.09.52,2.33,2.33,0,0,1-.7-1.52c0-1,.94-1.92,2.34-2.27.11,0,.23-.06.34-.06a3.94,3.94,0,0,1,.76,0C204.92,202.93,206.49,204,206.49,205.31ZM202.23,203c-.11,0-.23.06-.34.06a2.8,2.8,0,0,1-.7.06,5.49,5.49,0,0,1-5.19-5.77c0-3.26,2.33-5.88,5.19-5.88s5.18,2.62,5.18,5.88A5.6,5.6,0,0,1,202.23,203Zm12,0c-4.37,0-7.87-2.45-7.87-5.42s3.5-5.48,7.87-5.48a15.1,15.1,0,0,1,1.69.12l-.18-1.23c0-3,3.5-5.48,7.87-5.48s7.75,2.45,7.75,5.48v9.62c0,1.28-1.51,2.39-3.44,2.39s-3.49-1.11-3.49-2.39a2.4,2.4,0,0,1,1.69-2.1v-7.52c0-2.27-1.11-4-2.57-4s-2.62,1.75-2.62,4l.87,5.3a3.09,3.09,0,0,1,.24,1.29C222.05,200.48,218.55,202.93,214.24,202.93Zm17.19,12c0,3-3.5,5.48-7.87,5.48s-7.75-2.45-7.75-5.48a2.77,2.77,0,0,1,.24-1.22c-.59,0-1.17.11-1.81.11-4.31,0-7.81-2.44-7.81-5.47s3.5-5.42,7.81-5.42,7.81,2.44,7.81,5.42a3.07,3.07,0,0,1-.24,1.28,17.34,17.34,0,0,1,1.75-.12C227.93,209.51,231.43,212,231.43,214.93ZM216.8,197.51l-.29-1.93a2.72,2.72,0,0,0-2.33-2.09c-1.46,0-2.62,1.74-2.62,4s1.16,4,2.62,4S216.8,199.72,216.8,197.51Zm.06,10.84c0-2.22-1.11-4-2.56-4s-2.62,1.75-2.62,4,1.16,4,2.62,4S216.86,210.56,216.86,208.35Zm9.38,6.58c0-2.21-1.16-4-2.62-4s-2.56,1.75-2.56,4,1.1,4,2.56,4S226.24,217.14,226.24,214.93Z" transform="translate(-109.75 -182.47)"/>
    <path class="cls-1" d="M246.71,202.87c-5.65,0-10.32-3.27-10.32-7.29s4.61-7.22,10.32-7.22,10.31,3.2,10.31,7.22S252.42,202.87,246.71,202.87Zm0-1.52c2.8,0,5.13-2.62,5.13-5.77s-2.33-5.77-5.13-5.77a5.5,5.5,0,0,0-5.19,5.77C241.52,198.73,243.85,201.35,246.71,201.35Zm7.57,7.17c0,3.26-2.33,5.89-5.18,5.89s-5.19-2.63-5.19-5.89a5.21,5.21,0,1,1,10.37,0Zm25-3.38a1.29,1.29,0,0,1-.06.47v9.15c0,3-3.44,5.47-7.75,5.47s-7.81-2.44-7.81-5.47l.17-1.23a14.76,14.76,0,0,1-1.69.12c-4.37,0-7.81-2.45-7.81-5.48s3.5-5.42,7.81-5.42,7.75,2.45,7.75,5.42a4.23,4.23,0,0,1-.17,1.22l-.88,5.37c0,2.27,1.11,4,2.57,4s2.62-1.75,2.62-4v-7.52a2.41,2.41,0,0,1-1.69-2.1c0-1.28,1.57-2.39,3.44-2.39S279.23,203.86,279.23,205.14Zm7-7.4v2.68c0,1.34-1.58,2.45-3.44,2.45s-3.5-1.11-3.5-2.45a2.45,2.45,0,0,1,1.75-2.1v-.58c0-2-.93-3.61-2.1-3.61h-9.44a4.43,4.43,0,0,1,2.22,3.67c0,2.79-3.27,5.07-7.29,5.07s-7.22-2.28-7.22-5.07,3.2-5.13,7.22-5.13a8.88,8.88,0,0,1,1.75.17l-.06-.05c1.05.23,1.4-.82,1.05-1.17a4.88,4.88,0,0,1-2.74-4c0-2.8,3.27-5.13,7.29-5.13s7.28,2.33,7.28,5.13a4.73,4.73,0,0,1-2.74,4c-.35.35-.11,1,1,1H279C283,192.67,286.28,194.94,286.28,197.74Zm-22,12.3.29-1.87c0-2.21-1.11-4-2.56-4s-2.57,1.75-2.57,4,1.11,4,2.57,4C263,212.19,263.9,211.32,264.31,210Zm2.21-12.24c0-2-.87-3.67-2-3.67s-2.1,1.63-2.1,3.67.94,3.61,2.1,3.61S266.52,199.78,266.52,197.8Zm3.15-10.2c0,2,.87,3.67,2.1,3.67s2-1.63,2-3.67-.88-3.61-2-3.61S269.67,185.62,269.67,187.6Z" transform="translate(-109.75 -182.47)"/>
    <path class="cls-1" d="M297.29,202.87c-.06,0-.12-.06-.17-.06-1.46-.29-2.45-1.22-2.45-2.33a2.14,2.14,0,0,1,.58-1.4,4.14,4.14,0,0,1-2,.47c-1.92,0-3.5-1.11-3.5-2.45s1.58-2.45,3.5-2.45,3.44,1.11,3.44,2.45a2.17,2.17,0,0,1-.59,1.4,4.21,4.21,0,0,1,2-.47c1.92,0,3.49,1.11,3.49,2.45s-1.57,2.45-3.49,2.45A3.47,3.47,0,0,1,297.29,202.87Zm4.2,5.71c0,3.26-2.34,5.83-5.19,5.83s-5.19-2.57-5.19-5.83,2.33-5.83,5.19-5.83a3.82,3.82,0,0,1,.82.06c.05,0,.11.06.17.06A5.67,5.67,0,0,1,301.49,208.58Zm25-3.38v9.61c0,3-3.43,5.42-7.75,5.42s-7.86-2.44-7.86-5.42l.23-1.28a17,17,0,0,1-1.75.12c-4.37,0-7.86-2.45-7.86-5.42s3.49-5.48,7.86-5.48,7.81,2.45,7.81,5.48a3.11,3.11,0,0,1-.23,1.22l-.88,5.36c0,2.22,1.17,4,2.63,4s2.56-1.8,2.56-4V207.3a2.55,2.55,0,0,1-1.69-2.1c0-1.34,1.57-2.45,3.5-2.45S326.48,203.86,326.48,205.2Zm-24.94-9.62c0-4,4.67-7.22,10.38-7.22s10.37,3.26,10.37,7.22-4.66,7.29-10.37,7.29S301.54,199.6,301.54,195.58Zm10.08,14.51.3-1.86c0-2.22-1.17-4-2.63-4s-2.62,1.8-2.62,4,1.17,4,2.62,4C310.28,212.25,311.16,211.38,311.62,210.09Zm-4.83-14.51c0,3.21,2.33,5.77,5.13,5.77s5.18-2.56,5.18-5.77-2.27-5.77-5.18-5.77S306.79,192.38,306.79,195.58Z" transform="translate(-109.75 -182.47)"/>
    <path class="cls-1" d="M352.42,210.15c0,4-4.66,7.29-10.37,7.29s-10.37-3.27-10.37-7.29,4.66-7.22,10.37-7.22S352.42,206.19,352.42,210.15Zm-16.84-13c0-3.27,2.33-5.89,5.19-5.89s5.19,2.62,5.19,5.89a5.22,5.22,0,1,1-10.38,0Zm11.6,13c0-3.15-2.33-5.77-5.13-5.77s-5.18,2.62-5.18,5.77,2.33,5.83,5.18,5.83S347.18,213.36,347.18,210.15ZM346,197.51c0-3,3.49-5.48,7.86-5.48a14.76,14.76,0,0,1,1.69.12l-.17-1.23c0-3,3.49-5.48,7.87-5.48s7.75,2.45,7.75,5.48v9.62c0,1.28-1.52,2.39-3.44,2.39s-3.5-1.11-3.5-2.39a2.4,2.4,0,0,1,1.69-2.1v-7.52c0-2.27-1.11-4-2.56-4s-2.63,1.75-2.63,4l.88,5.3a3.25,3.25,0,0,1,.23,1.29c0,3-3.49,5.42-7.81,5.42S346,200.48,346,197.51Zm5.18,0c0,2.21,1.17,4,2.63,4s2.62-1.75,2.62-4l-.29-1.93c-.47-1.28-1.34-2.09-2.33-2.09C352.31,193.49,351.14,195.23,351.14,197.51Zm11.6,5.3c5,0,9.21,2.5,10.2,5.83h-5.13a5.43,5.43,0,0,0-5.07-4.37,4.82,4.82,0,0,0-3.61,1.69,3.52,3.52,0,0,1-3.33,1.69c-1.86,0-3.43-1.05-3.43-2.45s1.57-2.39,3.43-2.39a4.62,4.62,0,0,1,2.45.7A13.86,13.86,0,0,1,362.74,202.81Zm10.37,12.12c0,1.34-1.57,2.39-3.44,2.39a4.3,4.3,0,0,1-2.44-.7,14.12,14.12,0,0,1-4.49.7c-5,0-9.21-2.45-10.14-5.83h5.19a5.29,5.29,0,0,0,4.95,4.37,5.07,5.07,0,0,0,3.55-1.51,3.48,3.48,0,0,1,3.38-1.87C371.54,212.48,373.11,213.59,373.11,214.93Zm-10.37-7.28c1.92,0,3.44,1.1,3.44,2.44s-1.52,2.45-3.44,2.45-3.44-1.11-3.44-2.45S360.82,207.65,362.74,207.65Z" transform="translate(-109.75 -182.47)"/>
  </g>
</svg>
