<svg id="Ebene_1" data-name="Ebene 1" xmlns="http://www.w3.org/2000/svg" viewBox="0 0 884.74 197.99">
  <defs>
    <style>
      .cls-1, .cls-2, .cls-4 {
        fill: none;
      }

      .cls-1 {
        stroke: #000;
      }

      .cls-1, .cls-2 {
        stroke-miterlimit: 10;
        stroke-width: 0.5px;
      }

      .cls-2 {
        stroke: #1d1d1b;
      }

      .cls-3 {
        fill: #1d1d1b;
      }
    </style>
  </defs>
  <title>Kombination_1</title>
  <path class="cls-1" d="M745.66,468.25c0-6.28-7.1-11.38-15.83-11.38S714,462,714,468.25s7.1,11.26,15.83,11.26,15.83-5.1,15.83-11.26M790,436.72c0-6.28-7.1-11.38-15.83-11.38s-15.83,5.1-15.83,11.38S765.44,448,774.17,448,790,442.89,790,436.72m-22.23,15.77c0-6.29-7.1-11.38-15.83-11.38s-15.83,5.09-15.83,11.38,7.1,11.26,15.83,11.26,15.83-5.1,15.83-11.26" transform="translate(-46.07 -322.93)"/>
  <path class="cls-1" d="M240.4,469.25c0,6.16,7.31,11.26,16.3,11.26s16.3-5.1,16.3-11.26-7.31-11.38-16.3-11.38-16.3,5.1-16.3,11.38m-45.66-31.53c0,6.17,7.31,11.26,16.3,11.26s16.3-5.09,16.3-11.26S220,426.34,211,426.34s-16.3,5.1-16.3,11.38m22.89,15.77c0,6.16,7.31,11.26,16.3,11.26s16.3-5.1,16.3-11.26-7.31-11.38-16.3-11.38-16.3,5.09-16.3,11.38" transform="translate(-46.07 -322.93)"/>
  <path class="cls-1" d="M545.4,469.25c0,6.16,7.31,11.26,16.3,11.26s16.3-5.1,16.3-11.26-7.31-11.38-16.3-11.38-16.3,5.1-16.3,11.38m-45.66-31.53c0,6.17,7.31,11.26,16.3,11.26s16.3-5.09,16.3-11.26S525,426.34,516,426.34s-16.3,5.1-16.3,11.38m22.89,15.77c0,6.16,7.31,11.26,16.3,11.26s16.3-5.1,16.3-11.26-7.31-11.38-16.3-11.38-16.3,5.09-16.3,11.38" transform="translate(-46.07 -322.93)"/>
  <path class="cls-2" d="M436.39,426.47V480.3m26.08-53.83V480.3m-52.15-35.88h78.23m-78.23,17.94h78.23m-78.23-35.89h78.23V480.3H410.32Zm63.56,26.92c0,14.86-10.95,26.91-24.45,26.91S425,468.25,425,453.39s10.95-26.92,24.45-26.92S473.88,438.52,473.88,453.39Zm-63.56-26.92h78.23V480.3H410.32Zm0,47.1h78.23m-78.23-6.72h78.23m-78.23-6.73h78.23m-78.23-6.73h78.23m-78.23-6.73h78.23m-78.23-6.73h78.23m-78.23-6.73h78.23m-9.78-6.73V480.3M469,426.47V480.3m-9.78-53.83V480.3m-9.78-53.83V480.3m-9.78-53.83V480.3m-9.78-53.83V480.3m-9.77-53.83V480.3m68.45,40.38H351.64V426.47H488.55Z" transform="translate(-46.07 -322.93)"/>
  <path class="cls-3" d="M449.58,480.2c13.39,0,24.28-12,24.28-27S463,426.4,449.58,426.4s-24.4,12-24.4,26.84,10.88,27,24.4,27" transform="translate(-46.07 -322.93)"/>
  <path class="cls-2" d="M449.58,480.2c13.39,0,24.28-12,24.28-27S463,426.4,449.58,426.4s-24.4,12-24.4,26.84S436.06,480.2,449.58,480.2Z" transform="translate(-46.07 -322.93)"/>
  <path class="cls-2" d="M552,426.47V480.3M526,426.47V480.3m52.16-35.88H499.87m78.24,17.94H499.87m78.24-35.89H499.87V480.3h78.24Zm-63.57,26.92c0,14.86,11,26.91,24.45,26.91s24.45-12.05,24.45-26.91-11-26.92-24.45-26.92S514.54,438.52,514.54,453.39Zm63.57,26.91H499.87V426.47h78.24Zm-78.24-6.73h78.24m-78.24-6.72h78.24m-78.24-6.73h78.24m-78.24-6.73h78.24m-78.24-6.73h78.24m-78.24-6.73h78.24m-78.24-6.73h78.24m-68.46,47.1V426.47m9.78,53.83V426.47m9.78,53.83V426.47M539,480.3V426.47m9.78,53.83V426.47m9.78,53.83V426.47m9.78,53.83V426.47m-68.46,94.21H636.78V426.47H499.87Z" transform="translate(-46.07 -322.93)"/>
  <path d="M538.84,480.2c-13.39,0-24.28-12-24.28-27s10.89-26.84,24.28-26.84,24.4,12,24.4,26.84-10.88,27-24.4,27" transform="translate(-46.07 -322.93)"/>
  <path class="cls-2" d="M538.84,480.2c-13.39,0-24.28-12-24.28-27s10.89-26.84,24.28-26.84,24.4,12,24.4,26.84S552.36,480.2,538.84,480.2Z" transform="translate(-46.07 -322.93)"/>
  <path class="cls-2" d="M499.87,406.17c0-6.19,7.3-11.21,16.3-11.21s16.3,5,16.3,11.21-7.3,11.22-16.3,11.22S499.87,412.37,499.87,406.17Zm0-22.43c0-6.19,7.3-11.21,16.3-11.21s16.3,5,16.3,11.21S525.17,395,516.17,395,499.87,389.94,499.87,383.74Zm0-22.43c0-6.19,7.3-11.21,16.3-11.21s16.3,5,16.3,11.21-7.3,11.22-16.3,11.22S499.87,367.51,499.87,361.31Zm32.6,44.86c0-6.19,7.3-11.21,16.3-11.21s16.3,5,16.3,11.21-7.3,11.22-16.3,11.22S532.47,412.37,532.47,406.17Zm0-22.43c0-6.19,7.3-11.21,16.3-11.21s16.3,5,16.3,11.21S557.77,395,548.77,395,532.47,389.94,532.47,383.74Zm0-22.43c0-6.19,7.3-11.21,16.3-11.21s16.3,5,16.3,11.21-7.3,11.22-16.3,11.22S532.47,367.51,532.47,361.31Zm32.6,44.86c0-6.19,7.29-11.21,16.3-11.21s16.29,5,16.29,11.21-7.29,11.22-16.29,11.22S565.07,412.37,565.07,406.17Zm0-22.43c0-6.19,7.29-11.21,16.3-11.21s16.29,5,16.29,11.21S590.37,395,581.37,395,565.07,389.94,565.07,383.74Zm0-22.43c0-6.19,7.29-11.21,16.3-11.21s16.29,5,16.29,11.21-7.29,11.22-16.29,11.22S565.07,367.51,565.07,361.31Zm-40.75,22.43c0-14.86,10.95-26.91,24.45-26.91s24.45,12.05,24.45,26.91-11,26.92-24.45,26.92S524.32,398.61,524.32,383.74Zm-24.45,0c0-18.58,21.9-33.64,48.9-33.64s48.89,15.06,48.89,33.64-21.89,33.65-48.89,33.65S499.87,402.32,499.87,383.74Zm24.45,33.65V350.1m24.45,67.29h-48.9V350.1h48.9Zm24.45,0V350.1m24.44,67.29H548.77V350.1h48.89Zm-9.77,0V350.1m-9.78,67.29V350.1m-9.78,67.29V350.1m-9.78,67.29V350.1m-9.78,67.29V350.1M539,417.39V350.1m-9.78,67.29V350.1m-9.78,67.29V350.1m-9.78,67.29V350.1m88,60.56H499.87m97.79-6.73H499.87m97.79-6.73H499.87m97.79-6.73H499.87m97.79-6.73H499.87M597.66,377H499.87m97.79-6.72H499.87m97.79-6.73H499.87m97.79-6.73H499.87m97.79,60.56H499.87V350.1h97.79Zm-97.79-94.21H636.78v94.21H499.87Z" transform="translate(-46.07 -322.93)"/>
  <path class="cls-3" d="M567.67,367.09h23.48c-8.39-10.12-24.32-16.94-42.4-16.94-27,0-48.88,15.06-48.88,33.65s21.92,33.66,48.88,33.66,48.87-15.07,48.87-33.66H572.94c0,14.83-10.9,26.83-24.19,26.83-13.66,0-24.56-12-24.56-26.83S535.09,357,548.75,357a23.47,23.47,0,0,1,18.92,10.12m13.66,5.53c9,0,16.29-5.06,16.29-11.29s-7.31-11.18-16.29-11.18S565,355.21,565,361.33s7.3,11.29,16.29,11.29" transform="translate(-46.07 -322.93)"/>
  <path class="cls-4" d="M567.67,367.09h23.48c-8.39-10.12-24.32-16.94-42.4-16.94-27,0-48.88,15.06-48.88,33.65s21.92,33.66,48.88,33.66,48.87-15.07,48.87-33.66H572.94c0,14.83-10.9,26.83-24.19,26.83-13.66,0-24.56-12-24.56-26.83S535.09,357,548.75,357A23.47,23.47,0,0,1,567.67,367.09Zm13.66,5.53c9,0,16.29-5.06,16.29-11.29s-7.31-11.18-16.29-11.18S565,355.21,565,361.33,572.34,372.62,581.33,372.62Z" transform="translate(-46.07 -322.93)"/>
  <path class="cls-2" d="M488.55,406.17c0-6.19-7.3-11.21-16.3-11.21S456,400,456,406.17s7.3,11.22,16.3,11.22S488.55,412.37,488.55,406.17Zm0-22.43c0-6.19-7.3-11.21-16.3-11.21s-16.3,5-16.3,11.21,7.3,11.22,16.3,11.22S488.55,389.94,488.55,383.74Zm0-22.43c0-6.19-7.3-11.21-16.3-11.21s-16.3,5-16.3,11.21,7.3,11.22,16.3,11.22S488.55,367.51,488.55,361.31ZM456,406.17c0-6.19-7.3-11.21-16.3-11.21s-16.3,5-16.3,11.21,7.3,11.22,16.3,11.22S456,412.37,456,406.17Zm0-22.43c0-6.19-7.3-11.21-16.3-11.21s-16.3,5-16.3,11.21,7.3,11.22,16.3,11.22S456,389.94,456,383.74Zm0-22.43c0-6.19-7.3-11.21-16.3-11.21s-16.3,5-16.3,11.21,7.3,11.22,16.3,11.22S456,367.51,456,361.31Zm-32.6,44.86c0-6.19-7.29-11.21-16.29-11.21s-16.3,5-16.3,11.21,7.29,11.22,16.3,11.22S423.35,412.37,423.35,406.17Zm0-22.43c0-6.19-7.29-11.21-16.29-11.21s-16.3,5-16.3,11.21S398.05,395,407.06,395,423.35,389.94,423.35,383.74Zm0-22.43c0-6.19-7.29-11.21-16.29-11.21s-16.3,5-16.3,11.21,7.29,11.22,16.3,11.22S423.35,367.51,423.35,361.31Zm40.75,22.43c0-14.86-11-26.91-24.45-26.91s-24.45,12.05-24.45,26.91,10.95,26.92,24.45,26.92S464.1,398.61,464.1,383.74Zm24.45,0c0-18.58-21.89-33.64-48.9-33.64s-48.89,15.06-48.89,33.64,21.89,33.65,48.89,33.65S488.55,402.32,488.55,383.74ZM464.1,417.39V350.1m-24.45,67.29h48.9V350.1h-48.9Zm-24.45,0V350.1m-24.44,67.29h48.89V350.1H390.76Zm9.78,0V350.1m9.78,67.29V350.1m9.78,67.29V350.1m9.77,67.29V350.1m9.78,67.29V350.1m9.78,67.29V350.1m9.78,67.29V350.1M469,417.39V350.1m9.78,67.29V350.1m-88,60.56h97.79m-97.79-6.73h97.79m-97.79-6.73h97.79m-97.79-6.73h97.79m-97.79-6.73h97.79M390.76,377h97.79m-97.79-6.72h97.79m-97.79-6.73h97.79m-97.79-6.73h97.79m-97.79,60.56h97.79V350.1H390.76Zm97.79-94.21H351.64v94.21H488.55Z" transform="translate(-46.07 -322.93)"/>
  <path class="cls-3" d="M439.68,357c13.65,0,24.55,12.12,24.55,26.83s-10.9,26.83-24.55,26.83c-13.3,0-24.2-12-24.2-26.83H390.8c0,18.59,21.92,33.66,48.88,33.66s48.87-15.07,48.87-33.66-21.92-33.65-48.87-33.65c-18.09,0-34,6.82-42.41,16.94h23.48A23.48,23.48,0,0,1,439.68,357m-16.29,4.36c0-6.12-7.31-11.18-16.3-11.18s-16.29,5.06-16.29,11.18,7.31,11.29,16.29,11.29,16.3-5.06,16.3-11.29" transform="translate(-46.07 -322.93)"/>
  <path class="cls-4" d="M439.68,357c13.65,0,24.55,12.12,24.55,26.83s-10.9,26.83-24.55,26.83c-13.3,0-24.2-12-24.2-26.83H390.8c0,18.59,21.92,33.66,48.88,33.66s48.87-15.07,48.87-33.66-21.92-33.65-48.87-33.65c-18.09,0-34,6.82-42.41,16.94h23.48A23.48,23.48,0,0,1,439.68,357Zm-16.29,4.36c0-6.12-7.31-11.18-16.3-11.18s-16.29,5.06-16.29,11.18,7.31,11.29,16.29,11.29S423.39,367.56,423.39,361.33Z" transform="translate(-46.07 -322.93)"/>
  <path class="cls-2" d="M237,377.56c0-6.19,7.3-11.21,16.29-11.21s16.3,5,16.3,11.21-7.3,11.21-16.3,11.21S237,383.75,237,377.56Zm0-29.15c0-6.19,7.3-11.2,16.29-11.2s16.3,5,16.3,11.2-7.3,11.21-16.3,11.21S237,354.6,237,348.41Zm0,58.29c0-6.19,7.3-11.21,16.29-11.21s16.3,5,16.3,11.21-7.3,11.21-16.3,11.21S237,412.89,237,406.7Zm42.36-29.14c0-6.19,7.29-11.21,16.29-11.21s16.3,5,16.3,11.21-7.3,11.21-16.3,11.21S279.33,383.75,279.33,377.56Zm-84.72,0c0-6.19,7.3-11.21,16.3-11.21s16.29,5,16.29,11.21-7.3,11.21-16.29,11.21S194.61,383.75,194.61,377.56Zm0-29.15c0-6.19,7.3-11.2,16.3-11.2s16.29,5,16.29,11.2-7.3,11.21-16.29,11.21S194.61,354.6,194.61,348.41Zm84.72,0c0-6.19,7.29-11.2,16.29-11.2s16.3,5,16.3,11.2-7.3,11.21-16.3,11.21S279.33,354.6,279.33,348.41ZM194.61,406.7c0-6.19,7.3-11.21,16.3-11.21s16.29,5,16.29,11.21-7.3,11.21-16.29,11.21S194.61,412.89,194.61,406.7Zm84.72,0c0-6.19,7.29-11.21,16.29-11.21s16.3,5,16.3,11.21-7.3,11.21-16.3,11.21S279.33,412.89,279.33,406.7Zm22.81,11.21v-80.7m-9.77,80.7v-80.7m-9.78,80.7v-80.7m-9.77,80.7v-80.7M263,417.91v-80.7m-9.78,80.7v-80.7m-9.77,80.7v-80.7m-9.77,80.7v-80.7m-9.78,80.7v-80.7m-9.77,80.7v-80.7m-9.78,80.7v-80.7m107.53,74H194.62m117.3-6.73H194.62m117.3-6.72H194.62M311.92,391H194.62m117.3-6.72H194.62m117.3-6.73H194.62m117.3-6.73H194.62m117.3-6.72H194.62m117.3-6.73H194.62m117.3-6.72H194.62m117.3-6.73H194.62m117.3,74H194.62v-80.7h117.3ZM194.61,323.75H331.47v94.16H194.61ZM311.92,374.2H194.62m117.3,3.36H194.62v-6.73h117.3Zm-92.87-15.13c0-10.22,5.47-18.5,12.22-18.5s12.22,8.28,12.22,18.5-5.47,18.49-12.22,18.49S219.05,372.64,219.05,362.43Zm-24.43,0c0-13.93,16.41-25.22,36.65-25.22s36.66,11.29,36.66,25.22-16.41,25.22-36.66,25.22S194.62,376.35,194.62,362.43ZM263,392.69c0-10.21,5.47-18.49,12.22-18.49s12.22,8.28,12.22,18.49-5.47,18.5-12.22,18.5S263,402.91,263,392.69Zm12.22,25.22V370.83m36.66,47.08H238.6V370.83h73.32Zm-24.44,0v-80.7m4.89,60.53h-9.78m9.78-20.18h-9.78m9.78-20.18h-9.78m9.78,60.53h-9.78v-80.7h9.78ZM238.6,392.69c0-13.93,16.41-25.22,36.66-25.22s36.66,11.29,36.66,25.22-16.42,25.22-36.66,25.22S238.6,406.62,238.6,392.69Zm0-15.13V337.21m-14.66,40.35V337.21m-14.66,40.35V337.21m44,30.26H194.62m58.64-10.09H194.62m58.64-10.09H194.62m58.64,30.27H194.61V337.21h58.65ZM238.6,417.91V377.56m-14.66,40.35V377.56m-14.66,40.35V377.56m44,30.26H194.62m58.64-10.08H194.62m58.64-10.09H194.62m58.64,30.26H194.61V377.56h58.65Zm44-40.35V337.21m-14.66,40.35V337.21m-14.66,40.35V337.21m44,30.26H253.26m58.66-10.09H253.26m58.66-10.09H253.26m58.66,30.27H253.27V337.21h58.65Zm-14.67,40.35V377.56m-14.66,40.35V377.56m-14.66,40.35V377.56m44,30.26H253.26m58.66-10.08H253.26m58.66-10.09H253.26m58.66,30.26H253.27V377.56h58.65Z" transform="translate(-46.07 -322.93)"/>
  <path class="cls-3" d="M238.56,392.85c0,13.91,16.43,25.23,36.93,25.23s36.68-11.32,36.68-25.23V348.29H287.48v44.56c0,10.38-5.4,18.63-12.23,18.63S263,403.23,263,392.85H238.56m-44.11-30.53c0,13.91,16.42,25.23,36.92,25.23s36.69-11.32,36.69-25.23-16.31-25.22-36.69-25.22-36.92,11.31-36.92,25.22m48.91,0c0,10.38-5.39,18.63-12.23,18.63s-12.23-8.25-12.23-18.63,5.4-18.5,12.23-18.5,12.23,8.25,12.23,18.5m-4.8,30.53H263l5-30.53h-24.7Zm41-44.56c0,6.25,7.32,11.32,16.31,11.32s16.3-5.07,16.3-11.32-7.31-11.19-16.3-11.19-16.31,5.06-16.31,11.19" transform="translate(-46.07 -322.93)"/>
  <path class="cls-2" d="M238.56,362.32H263c0-10.37,5.4-18.62,12.23-18.62s12.23,8.25,12.23,18.62v44.56h24.69V362.32c0-13.91-16.3-25.22-36.68-25.22S238.56,348.41,238.56,362.32Zm-44.11,30.53c0,13.91,16.42,25.23,36.92,25.23s36.69-11.32,36.69-25.23-16.31-25.22-36.69-25.22S194.45,378.94,194.45,392.85Zm48.91,0c0,10.26-5.39,18.51-12.23,18.51s-12.23-8.25-12.23-18.51,5.4-18.62,12.23-18.62S243.36,382.48,243.36,392.85Zm0,0h24.7l-5-30.53H238.56Zm36.2,14c0,6.13,7.32,11.2,16.31,11.2s16.3-5.07,16.3-11.2-7.31-11.31-16.3-11.31S279.56,400.63,279.56,406.88Z" transform="translate(-46.07 -322.93)"/>
  <path class="cls-2" d="M182.77,406.13c0-6.19-7.29-11.2-16.29-11.2s-16.3,5-16.3,11.2,7.3,11.21,16.3,11.21S182.77,412.32,182.77,406.13Zm0-22.42c0-6.19-7.29-11.2-16.29-11.2s-16.3,5-16.3,11.2,7.3,11.22,16.3,11.22S182.77,389.91,182.77,383.71Zm0-22.41c0-6.2-7.29-11.21-16.29-11.21s-16.3,5-16.3,11.21,7.3,11.21,16.3,11.21S182.77,367.49,182.77,361.3Zm-32.59,44.83c0-6.19-7.29-11.2-16.29-11.2s-16.29,5-16.29,11.2,7.3,11.21,16.29,11.21S150.18,412.32,150.18,406.13Zm0-22.42c0-6.19-7.29-11.2-16.29-11.2s-16.29,5-16.29,11.2,7.3,11.22,16.29,11.22S150.18,389.91,150.18,383.71Zm0-22.41c0-6.2-7.29-11.21-16.29-11.21s-16.29,5-16.29,11.21,7.3,11.21,16.29,11.21S150.18,367.49,150.18,361.3ZM117.6,406.13c0-6.19-7.29-11.2-16.29-11.2S85,399.94,85,406.13s7.29,11.21,16.29,11.21S117.6,412.32,117.6,406.13Zm0-22.42c0-6.19-7.29-11.2-16.29-11.2S85,377.52,85,383.71s7.29,11.22,16.29,11.22S117.6,389.91,117.6,383.71Zm0-22.41c0-6.2-7.29-11.21-16.29-11.21S85,355.1,85,361.3s7.29,11.21,16.29,11.21S117.6,367.49,117.6,361.3Zm41.14,22.41c0-14.85-10.94-26.9-24.44-26.9s-24.44,12.05-24.44,26.9,10.94,26.91,24.44,26.91S158.74,398.57,158.74,383.71Zm24.44,0c0-18.58-21.89-33.63-48.88-33.63s-48.87,15.05-48.87,33.63,21.88,33.62,48.87,33.62S183.18,402.29,183.18,383.72Zm-24.44,33.62V350.09M134.3,417.34h48.88V350.09H134.3Zm-24.44,0V350.09M85.43,417.34H134.3V350.09H85.43Zm9.77,0V350.09M105,417.34V350.09m9.77,67.25V350.09m9.78,67.25V350.09m9.77,67.25V350.09m9.78,67.25V350.09m9.77,67.25V350.09m9.78,67.25V350.09m9.77,67.25V350.09m-88,60.53h97.75m-97.75-6.73h97.75m-97.75-6.72h97.75m-97.75-6.73h97.75m-97.75-6.72h97.75M85.43,377h97.75m-97.75-6.73h97.75m-97.75-6.72h97.75m-97.75-6.73h97.75M85.43,417.34h97.75V350.09H85.43Zm97.75-94.16H46.32v94.17H183.18Z" transform="translate(-46.07 -322.93)"/>
  <path class="cls-3" d="M134.5,356.9c13.35,0,24.3,12.06,24.3,27h24.78c0-18.68-22-33.82-49.08-33.82-18.17,0-34.17,6.86-42.59,17h23.22A24.24,24.24,0,0,1,134.5,356.9m16.36,49.56c0,6.15,7.34,11.23,16.36,11.23s16.36-5.08,16.36-11.23-7.34-11.36-16.36-11.36-16.36,5.09-16.36,11.36M85.42,361.39c0,6.15,7.34,11.24,16.36,11.24s16.36-5.09,16.36-11.24S110.8,350,101.78,350s-16.36,5.08-16.36,11.35m49.08,56.3c18.16,0,34.16-6.86,42.58-17H153.5a23.56,23.56,0,0,1-19,10.17c-13.72,0-24.66-12.18-24.66-27H85.42c0,18.69,22,33.83,49.08,33.83" transform="translate(-46.07 -322.93)"/>
  <path class="cls-2" d="M134.5,356.9c13.35,0,24.3,12.06,24.3,27h24.78c0-18.68-22-33.82-49.08-33.82-18.17,0-34.17,6.86-42.59,17h23.22A24.24,24.24,0,0,1,134.5,356.9Zm16.36,49.56c0,6.15,7.34,11.23,16.36,11.23s16.36-5.08,16.36-11.23-7.34-11.36-16.36-11.36S150.86,400.19,150.86,406.46ZM85.42,361.39c0,6.15,7.34,11.24,16.36,11.24s16.36-5.09,16.36-11.24S110.8,350,101.78,350,85.42,355.12,85.42,361.39Zm49.08,56.3c18.16,0,34.16-6.86,42.58-17H153.5a23.56,23.56,0,0,1-19,10.17c-13.72,0-24.66-12.18-24.66-27H85.42C85.42,402.55,107.43,417.69,134.5,417.69Z" transform="translate(-46.07 -322.93)"/>
  <path class="cls-2" d="M131.16,426.51v53.81m26.07-53.81v53.81m-52.14-35.87h78.2m-78.2,17.93h78.2m-78.2-35.87h78.2v53.81h-78.2Zm63.54,26.91c0,14.86-10.94,26.9-24.44,26.9s-24.44-12-24.44-26.9,10.95-26.91,24.44-26.91S168.63,438.56,168.63,453.42Zm-63.54-26.91h78.2v53.81h-78.2Zm0,47.09h78.2m-78.2-6.73h78.2m-78.2-6.73h78.2m-78.2-6.72h78.2m-78.2-6.73h78.2M105.09,440h78.2m-78.2-6.73h78.2m-9.77-6.73v53.81m-9.78-53.81v53.81M154,426.51v53.81m-9.78-53.81v53.81m-9.77-53.81v53.81m-9.78-53.81v53.81m-9.77-53.81v53.81m68.42,40.36H46.44V426.51H183.29Z" transform="translate(-46.07 -322.93)"/>
  <path class="cls-3" d="M144.34,480.31c13.44,0,24.37-12,24.37-27s-10.93-26.92-24.37-26.92-24.49,12-24.49,26.92,10.93,27,24.49,27" transform="translate(-46.07 -322.93)"/>
  <path class="cls-2" d="M144.34,480.31c13.44,0,24.37-12,24.37-27s-10.93-26.92-24.37-26.92-24.49,12-24.49,26.92S130.78,480.31,144.34,480.31Z" transform="translate(-46.07 -322.93)"/>
  <path class="cls-2" d="M246.75,426.51v53.81m-26.07-53.81v53.81m52.14-35.87h-78.2m78.2,17.93h-78.2m78.2-35.87h-78.2v53.81h78.2Zm-63.54,26.91c0,14.86,10.94,26.9,24.43,26.9s24.44-12,24.44-26.9-10.94-26.91-24.44-26.91S209.28,438.56,209.28,453.42Zm63.54,26.9h-78.2V426.51h78.2Zm-78.2-6.72h78.2m-78.2-6.73h78.2m-78.2-6.73h78.2m-78.2-6.72h78.2m-78.2-6.73h78.2M194.62,440h78.2m-78.2-6.73h78.2m-68.43,47.08V426.51m9.78,53.81V426.51m9.77,53.81V426.51m9.77,53.81V426.51m9.78,53.81V426.51m9.77,53.81V426.51M263,480.32V426.51m-68.43,94.17H331.47V426.51H194.61Z" transform="translate(-46.07 -322.93)"/>
  <path class="cls-3" d="M233.57,480.31c-13.45,0-24.37-12-24.37-27s10.92-26.92,24.37-26.92,24.48,12,24.48,26.92-10.92,27-24.48,27" transform="translate(-46.07 -322.93)"/>
  <path class="cls-2" d="M233.57,480.31c-13.45,0-24.37-12-24.37-27s10.92-26.92,24.37-26.92,24.48,12,24.48,26.92S247.13,480.31,233.57,480.31Z" transform="translate(-46.07 -322.93)"/>
  <path class="cls-2" d="M840.22,376.91c0-6.18,7-11.19,15.58-11.19s15.58,5,15.58,11.19-7,11.19-15.58,11.19S840.22,383.09,840.22,376.91Zm0-29.1c0-6.18,7-11.19,15.58-11.19s15.58,5,15.58,11.19S864.4,359,855.8,359,840.22,354,840.22,347.81Zm0,58.2c0-6.18,7-11.19,15.58-11.19s15.58,5,15.58,11.19-7,11.19-15.58,11.19S840.22,412.19,840.22,406Zm40.5-29.1c0-6.18,7-11.19,15.58-11.19s15.57,5,15.57,11.19-7,11.19-15.57,11.19S880.72,383.09,880.72,376.91Zm-81,0c0-6.18,7-11.19,15.58-11.19s15.58,5,15.58,11.19-7,11.19-15.58,11.19S799.72,383.09,799.72,376.91Zm0-29.1c0-6.18,7-11.19,15.58-11.19s15.58,5,15.58,11.19S823.9,359,815.3,359,799.72,354,799.72,347.81Zm81,0c0-6.18,7-11.19,15.58-11.19s15.57,5,15.57,11.19S904.9,359,896.3,359,880.72,354,880.72,347.81Zm-81,58.2c0-6.18,7-11.19,15.58-11.19s15.58,5,15.58,11.19-7,11.19-15.58,11.19S799.72,412.19,799.72,406Zm81,0c0-6.18,7-11.19,15.58-11.19s15.57,5,15.57,11.19-7,11.19-15.57,11.19S880.72,412.19,880.72,406Zm21.81,11.19V336.62m-9.35,80.58V336.62m-9.34,80.58V336.62m-9.35,80.58V336.62m-9.34,80.58V336.62M855.8,417.2V336.62m-9.35,80.58V336.62m-9.34,80.58V336.62m-9.35,80.58V336.62m-9.34,80.58V336.62m-9.35,80.58V336.62m102.8,73.87H799.73m112.14-6.72H799.73m112.14-6.71H799.73m112.14-6.72H799.73m112.14-6.72H799.73m112.14-6.71H799.73m112.14-6.72H799.73m112.14-6.71H799.73m112.14-6.72H799.73m112.14-6.71H799.73m112.14-6.72H799.73M911.87,417.2H799.73V336.62H911.87Zm-112.15-94H930.57v94H799.72Zm112.15,50.37H799.73m112.14,3.36H799.73v-6.72H911.87ZM823.09,361.8c0-10.2,5.23-18.47,11.68-18.47s11.68,8.27,11.68,18.47-5.23,18.47-11.68,18.47S823.09,372,823.09,361.8Zm-23.36,0c0-13.91,15.69-25.18,35-25.18s35.05,11.27,35.05,25.18S854.13,387,834.77,387,799.73,375.71,799.73,361.8ZM865.15,392c0-10.2,5.23-18.47,11.68-18.47s11.68,8.27,11.68,18.47-5.23,18.47-11.68,18.47S865.15,402.22,865.15,392Zm11.68,25.18v-47m35,47H841.78v-47h70.09Zm-23.36,0V336.62m4.67,60.44h-9.34m9.34-20.15h-9.34m9.34-20.15h-9.34m9.34,60.44h-9.34V336.62h9.34ZM841.78,392c0-13.91,15.69-25.18,35.05-25.18s35,11.27,35,25.18-15.69,25.18-35,25.18S841.78,405.93,841.78,392Zm0-15.11V336.62m-14,40.29V336.62m-14,40.29V336.62m42.06,30.22H799.73m56.07-10.08H799.73m56.07-10.07H799.73m56.07,30.22H799.73V336.62H855.8Zm-14,40.29V376.91m-14,40.29V376.91m-14,40.29V376.91m42.06,30.22H799.73m56.07-10.07H799.73M855.8,387H799.73M855.8,417.2H799.73V376.91H855.8Zm42.05-40.29V336.62m-14,40.29V336.62m-14,40.29V336.62m42,30.22H855.8m56.07-10.08H855.8m56.07-10.07H855.8m56.07,30.22H855.8V336.62h56.07Zm-14,40.29V376.91m-14,40.29V376.91m-14,40.29V376.91m42,30.22H855.8m56.07-10.07H855.8M911.87,387H855.8m56.07,30.22H855.8V376.91h56.07Z" transform="translate(-46.07 -322.93)"/>
  <path class="cls-3" d="M834.58,336.65c-19.43,0-35,11.26-35,25.09v44.32h23.55V361.74c0-10.32,5.15-18.52,11.66-18.52s11.66,8.2,11.66,18.52h23.32c0-13.83-15.66-25.09-35.21-25.09m35.21,25.09H846.47l-4.8,30.37h23.55ZM815.15,394.8c-8.57,0-15.55,5.05-15.55,11.26s7,11.14,15.55,11.14,15.55-5,15.55-11.14-7-11.26-15.55-11.26m61.73,22.4c19.43,0,35-11.26,35-25.09V347.79H888.31v44.32c0,10.32-5.14,18.52-11.66,18.52s-11.43-8.2-11.43-18.52H841.67c0,13.83,15.66,25.09,35.21,25.09M896.31,359c8.58,0,15.55-5,15.55-11.25s-7-11.14-15.55-11.14-15.54,5-15.54,11.14,7,11.25,15.54,11.25" transform="translate(-46.07 -322.93)"/>
  <path class="cls-2" d="M834.58,336.65c-19.43,0-35,11.26-35,25.09v44.32h23.55V361.74c0-10.32,5.15-18.52,11.66-18.52s11.66,8.2,11.66,18.52h23.32C869.79,347.91,854.13,336.65,834.58,336.65Zm35.21,25.09H846.47l-4.8,30.37h23.55ZM815.15,394.8c-8.57,0-15.55,5.05-15.55,11.26s7,11.14,15.55,11.14,15.55-5,15.55-11.14S823.72,394.8,815.15,394.8Zm61.73,22.4c19.43,0,35-11.26,35-25.09V347.79H888.31v44.32c0,10.32-5.14,18.52-11.66,18.52s-11.43-8.2-11.43-18.52H841.67C841.67,405.94,857.33,417.2,876.88,417.2ZM896.31,359c8.58,0,15.55-5,15.55-11.25s-7-11.14-15.55-11.14-15.54,5-15.54,11.14S887.74,359,896.31,359Z" transform="translate(-46.07 -322.93)"/>
  <path class="cls-2" d="M798,436.78c0,6.26,7.06,11.34,15.77,11.34s15.78-5.08,15.78-11.34-7.06-11.34-15.78-11.34S798,430.52,798,436.78Zm0,22.68c0,6.26,7.06,11.33,15.77,11.33s15.78-5.07,15.78-11.33-7.06-11.34-15.78-11.34S798,453.19,798,459.46Zm0,22.67c0,6.26,7.06,11.34,15.77,11.34s15.78-5.08,15.78-11.34-7.06-11.34-15.78-11.34S798,475.87,798,482.13Zm31.55-45.35c0,6.26,7.07,11.34,15.78,11.34s15.78-5.08,15.78-11.34-7.07-11.34-15.78-11.34S829.59,430.52,829.59,436.78Zm0,22.68c0,6.26,7.07,11.33,15.78,11.33s15.78-5.07,15.78-11.33-7.07-11.34-15.78-11.34S829.59,453.19,829.59,459.46Zm0,22.67c0,6.26,7.07,11.34,15.78,11.34s15.78-5.08,15.78-11.34-7.07-11.34-15.78-11.34S829.59,475.87,829.59,482.13Zm31.56-45.35c0,6.26,7.06,11.34,15.77,11.34S892.7,443,892.7,436.78s-7.06-11.34-15.78-11.34S861.15,430.52,861.15,436.78Zm0,22.68c0,6.26,7.06,11.33,15.77,11.33s15.78-5.07,15.78-11.33-7.06-11.34-15.78-11.34S861.15,453.19,861.15,459.46Zm0,22.67c0,6.26,7.06,11.34,15.77,11.34s15.78-5.08,15.78-11.34-7.06-11.34-15.78-11.34S861.15,475.87,861.15,482.13ZM821.7,459.46c0,15,10.6,27.2,23.67,27.2S869,474.48,869,459.46s-10.59-27.21-23.66-27.21S821.7,444.43,821.7,459.46Zm-23.66,0c0,18.78,21.19,34,47.33,34s47.33-15.23,47.33-34-21.19-34-47.33-34S798,440.67,798,459.46Zm23.66-34v68m23.67-68H798v68h47.33Zm23.66,0v68m23.67-68H845.37v68H892.7Zm-9.47,0v68m-9.46-68v68m-9.47-68v68m-9.46-68v68m-9.47-68v68m-9.47-68v68m-9.46-68v68m-9.47-68v68m-9.47-68v68m85.2-61.22H798m94.66,6.8H798m94.66,6.8H798m94.66,6.8H798m94.66,6.81H798m94.66,6.8H798m94.66,6.8H798m94.66,6.8H798m94.66,6.8H798m94.66-61.22H798v68H892.7ZM798,520.68H930.57V425.44H798Z" transform="translate(-46.07 -322.93)"/>
  <path class="cls-3" d="M892.38,459.59c0-18.69-21.11-33.84-47.07-33.84s-47.08,15.15-47.08,33.84,21.12,33.85,47.08,33.85,47.07-15.15,47.07-33.85m-70.38,0c0-14.79,10.5-27,23.31-27,13.15,0,23.65,12.18,23.65,27s-10.5,27-23.65,27c-12.81,0-23.31-12.07-23.31-27" transform="translate(-46.07 -322.93)"/>
  <path class="cls-2" d="M892.38,459.59c0-18.69-21.11-33.84-47.07-33.84s-47.08,15.15-47.08,33.84,21.12,33.85,47.08,33.85S892.38,478.29,892.38,459.59Zm-70.38,0c0-14.79,10.5-27,23.31-27,13.15,0,23.65,12.18,23.65,27s-10.5,27-23.65,27C832.5,486.57,822,474.5,822,459.59Z" transform="translate(-46.07 -322.93)"/>
  <path class="cls-2" d="M739,425.44v54.42m25.24-54.42v54.42m-50.49-36.28h75.73m-75.73,18.14h75.73m-75.73-36.28h75.73v54.42H713.75Zm61.53,27.21c0,15-10.59,27.21-23.66,27.21S728,467.68,728,452.65s10.6-27.21,23.67-27.21S775.28,437.63,775.28,452.65Zm-61.53-27.21h75.73v54.42H713.75Zm0,47.62h75.73m-75.73-6.8h75.73m-75.73-6.8h75.73m-75.73-6.81h75.73m-75.73-6.8h75.73m-75.73-6.8h75.73m-75.73-6.8h75.73M780,425.44v54.42m-9.47-54.42v54.42m-9.46-54.42v54.42m-9.47-54.42v54.42m-9.47-54.42v54.42m-9.46-54.42v54.42m-9.47-54.42v54.42m66.26,40.82H657V425.44H789.48Z" transform="translate(-46.07 -322.93)"/>
  <path class="cls-3" d="M751.7,479.82c13,0,23.53-12.14,23.53-27.25s-10.55-27.12-23.53-27.12-23.65,12.13-23.65,27.12,10.55,27.25,23.65,27.25" transform="translate(-46.07 -322.93)"/>
  <path class="cls-2" d="M751.7,479.82c13,0,23.53-12.14,23.53-27.25s-10.55-27.12-23.53-27.12-23.65,12.13-23.65,27.12S738.6,479.82,751.7,479.82Z" transform="translate(-46.07 -322.93)"/>
  <path class="cls-2" d="M738.65,418.11V364.3m25,53.81V364.3M713.7,400.17h74.87M713.7,382.23h74.87M713.7,418.11h74.87V364.3H713.7Zm60.83-26.91c0-14.86-10.47-26.9-23.4-26.9s-23.4,12-23.4,26.9,10.48,26.91,23.4,26.91S774.53,406.06,774.53,391.2ZM713.7,364.3h74.87v53.81H713.7ZM788.57,371H713.7m74.87,6.73H713.7m74.87,6.73H713.7m74.87,6.72H713.7m74.87,6.73H713.7m74.87,6.72H713.7m74.87,6.73H713.7m65.51-47.08v53.81m-9.36-53.81v53.81m-9.36-53.81v53.81m-9.36-53.81v53.81m-9.36-53.81v53.81m-9.36-53.81v53.81m-9.36-53.81v53.81M788.57,324h-131v94.16h131Z" transform="translate(-46.07 -322.93)"/>
  <path class="cls-3" d="M757.78,407.25c0,6.16,7.05,11.26,15.72,11.26s15.72-5.1,15.72-11.26-7.05-11.38-15.72-11.38-15.72,5.1-15.72,11.38m-44-31.53c0,6.17,7,11.26,15.72,11.26s15.72-5.09,15.72-11.26-7-11.38-15.72-11.38-15.72,5.1-15.72,11.38m22.07,15.77c0,6.16,7.06,11.26,15.72,11.26s15.72-5.1,15.72-11.26-7-11.38-15.72-11.38-15.72,5.09-15.72,11.38" transform="translate(-46.07 -322.93)"/>
  <path class="cls-2" d="M757.78,407.25c0,6.16,7.05,11.26,15.72,11.26s15.72-5.1,15.72-11.26-7.05-11.38-15.72-11.38S757.78,401,757.78,407.25Zm-44-31.53c0,6.17,7,11.26,15.72,11.26s15.72-5.09,15.72-11.26-7-11.38-15.72-11.38S713.74,369.44,713.74,375.72Zm22.07,15.77c0,6.16,7.06,11.26,15.72,11.26s15.72-5.1,15.72-11.26-7-11.38-15.72-11.38S735.81,385.2,735.81,391.49Z" transform="translate(-46.07 -322.93)"/>
</svg>
