<svg id="Ebene_1" data-name="Ebene 1" xmlns="http://www.w3.org/2000/svg" xmlns:xlink="http://www.w3.org/1999/xlink" viewBox="0 0 696.42 66.69">
  <defs>
    <style>
      .cls-1 {
        fill: none;
      }

      .cls-2 {
        clip-path: url(#clip-path);
      }

      .cls-3 {
        fill: #1d1d1b;
      }
    </style>
    <clipPath id="clip-path" transform="translate(-135 -507.31)">
      <rect class="cls-1" x="135" y="507.31" width="696.42" height="66.69"/>
    </clipPath>
  </defs>
  <title>Kombinatiuon_2</title>
  <g class="cls-2">
    <path class="cls-3" d="M557.56,507.31c-8.11,0-14.59,4.74-14.59,10.57v18.67h9.82V517.88c0-4.35,2.15-7.81,4.86-7.81s4.87,3.46,4.87,7.81h9.73c0-5.83-6.54-10.57-14.69-10.57m14.69,10.57h-9.73l-2,12.79h9.82Zm-22.8,13.93c-3.57,0-6.48,2.13-6.48,4.74s2.91,4.7,6.48,4.7,6.49-2.13,6.49-4.7-2.91-4.74-6.49-4.74m25.75,9.44c8.11,0,14.6-4.75,14.6-10.58V512H580v18.67c0,4.35-2.14,7.81-4.86,7.81s-4.77-3.46-4.77-7.81h-9.82c0,5.83,6.53,10.58,14.68,10.58m8.11-24.51c3.58,0,6.49-2.12,6.49-4.74s-2.91-4.69-6.49-4.69-6.48,2.12-6.48,4.69,2.9,4.74,6.48,4.74" transform="translate(-135 -507.31)"/>
    <path class="cls-3" d="M210.18,559.07c0-7.88-8.8-14.26-19.64-14.26s-19.64,6.38-19.64,14.26,8.81,14.26,19.64,14.26,19.64-6.38,19.64-14.26m-29.36,0c0-6.23,4.38-11.37,9.72-11.37,5.49,0,9.87,5.14,9.87,11.37s-4.38,11.37-9.87,11.37c-5.34,0-9.72-5.09-9.72-11.37" transform="translate(-135 -507.31)"/>
    <path class="cls-3" d="M333.83,558.91c0-7.88-8.81-14.27-19.64-14.27s-19.64,6.39-19.64,14.27,8.81,14.26,19.64,14.26,19.64-6.38,19.64-14.26m-29.36,0c0-6.24,4.38-11.37,9.72-11.37,5.49,0,9.87,5.13,9.87,11.37s-4.38,11.37-9.87,11.37c-5.34,0-9.72-5.09-9.72-11.37" transform="translate(-135 -507.31)"/>
    <path class="cls-3" d="M251.63,527.63c0,7.88,8.81,14.27,19.64,14.27s19.64-6.39,19.64-14.27-8.81-14.26-19.64-14.26-19.64,6.38-19.64,14.26m29.36,0c0,6.24-4.38,11.37-9.72,11.37s-9.87-5.13-9.87-11.37,4.38-11.37,9.87-11.37,9.72,5.09,9.72,11.37" transform="translate(-135 -507.31)"/>
    <path class="cls-3" d="M375.93,527.35c0,7.88,8.81,14.26,19.64,14.26s19.64-6.38,19.64-14.26-8.81-14.27-19.64-14.27-19.64,6.39-19.64,14.27m29.37,0c0,6.23-4.39,11.37-9.73,11.37s-9.87-5.14-9.87-11.37S390.08,516,395.57,516s9.73,5.08,9.73,11.37" transform="translate(-135 -507.31)"/>
    <path class="cls-3" d="M581.68,559.07c0-7.88-8.81-14.26-19.64-14.26s-19.64,6.38-19.64,14.26,8.81,14.26,19.64,14.26,19.64-6.38,19.64-14.26m-29.37,0c0-6.23,4.38-11.37,9.73-11.37s9.87,5.14,9.87,11.37-4.38,11.37-9.87,11.37-9.73-5.09-9.73-11.37" transform="translate(-135 -507.31)"/>
    <path class="cls-3" d="M708,559.74c0-7.88-8.81-14.27-19.64-14.27s-19.64,6.39-19.64,14.27S677.48,574,688.31,574,708,567.62,708,559.74m-29.36,0c0-6.24,4.38-11.37,9.72-11.37,5.49,0,9.87,5.13,9.87,11.37s-4.38,11.37-9.87,11.37c-5.34,0-9.72-5.09-9.72-11.37" transform="translate(-135 -507.31)"/>
    <path class="cls-3" d="M831.42,559.07c0-7.88-8.81-14.26-19.64-14.26s-19.64,6.38-19.64,14.26,8.81,14.26,19.64,14.26,19.64-6.38,19.64-14.26m-29.36,0c0-6.23,4.38-11.37,9.72-11.37,5.49,0,9.87,5.14,9.87,11.37s-4.38,11.37-9.87,11.37c-5.34,0-9.72-5.09-9.72-11.37" transform="translate(-135 -507.31)"/>
    <path class="cls-3" d="M150.52,567.6c5.42,0,9.83-5.11,9.83-11.48s-4.41-11.44-9.83-11.44-9.88,5.11-9.88,11.44,4.41,11.48,9.88,11.48" transform="translate(-135 -507.31)"/>
    <path class="cls-3" d="M275.22,567.44c5.43,0,9.83-5.12,9.83-11.49s-4.4-11.43-9.83-11.43-9.87,5.11-9.87,11.43,4.4,11.49,9.87,11.49" transform="translate(-135 -507.31)"/>
    <path class="cls-3" d="M399.53,567.6c5.42,0,9.82-5.11,9.82-11.48s-4.4-11.44-9.82-11.44-9.88,5.11-9.88,11.44,4.4,11.48,9.88,11.48" transform="translate(-135 -507.31)"/>
    <path class="cls-3" d="M523,567.6c5.43,0,9.83-5.11,9.83-11.48s-4.4-11.44-9.83-11.44-9.87,5.11-9.87,11.44,4.4,11.48,9.87,11.48" transform="translate(-135 -507.31)"/>
    <path class="cls-3" d="M649.13,568.27c5.43,0,9.83-5.12,9.83-11.49s-4.4-11.43-9.83-11.43-9.87,5.11-9.87,11.43,4.4,11.49,9.87,11.49" transform="translate(-135 -507.31)"/>
    <path class="cls-3" d="M772.59,567.6c5.43,0,9.83-5.11,9.83-11.48s-4.4-11.44-9.83-11.44-9.87,5.11-9.87,11.44,4.4,11.48,9.87,11.48" transform="translate(-135 -507.31)"/>
    <path class="cls-3" d="M807.83,518.49c-5.42,0-9.83,5.12-9.83,11.49s4.41,11.44,9.83,11.44,9.88-5.12,9.88-11.44-4.41-11.49-9.88-11.49" transform="translate(-135 -507.31)"/>
    <path class="cls-3" d="M153.38,537.39c0,2.59,2.94,4.74,6.56,4.74s6.56-2.15,6.56-4.74-2.94-4.8-6.56-4.8-6.56,2.15-6.56,4.8M135,524.09c0,2.6,2.94,4.75,6.56,4.75s6.56-2.15,6.56-4.75-2.94-4.8-6.56-4.8-6.56,2.15-6.56,4.8m9.21,6.65c0,2.6,2.95,4.75,6.56,4.75s6.56-2.15,6.56-4.75-2.94-4.8-6.56-4.8-6.56,2.15-6.56,4.8" transform="translate(-135 -507.31)"/>
    <path class="cls-3" d="M525.56,537.05c0,2.6,2.94,4.75,6.56,4.75s6.56-2.15,6.56-4.75-2.94-4.8-6.56-4.8-6.56,2.15-6.56,4.8m-18.38-13.29c0,2.6,2.94,4.75,6.56,4.75s6.56-2.15,6.56-4.75-2.94-4.8-6.56-4.8-6.56,2.15-6.56,4.8m9.21,6.65c0,2.59,3,4.74,6.56,4.74s6.56-2.15,6.56-4.74-2.94-4.8-6.56-4.8-6.56,2.15-6.56,4.8" transform="translate(-135 -507.31)"/>
    <path class="cls-3" d="M651.74,537.9c0,2.6,2.94,4.75,6.56,4.75s6.56-2.15,6.56-4.75-3-4.8-6.56-4.8-6.56,2.15-6.56,4.8m-18.38-13.29c0,2.59,2.94,4.74,6.56,4.74s6.56-2.15,6.56-4.74-2.94-4.8-6.56-4.8-6.56,2.15-6.56,4.8m9.21,6.64c0,2.6,2.94,4.75,6.56,4.75s6.56-2.15,6.56-4.75-2.94-4.8-6.56-4.8-6.56,2.15-6.56,4.8" transform="translate(-135 -507.31)"/>
    <path class="cls-3" d="M775.07,536.62c0,2.59,2.94,4.74,6.56,4.74s6.56-2.15,6.56-4.74-3-4.8-6.56-4.8-6.56,2.15-6.56,4.8m-18.38-13.3c0,2.6,2.94,4.75,6.56,4.75s6.56-2.15,6.56-4.75-2.94-4.8-6.56-4.8-6.56,2.15-6.56,4.8M765.9,530c0,2.6,2.94,4.75,6.56,4.75S779,532.57,779,530s-2.94-4.8-6.56-4.8-6.56,2.15-6.56,4.8" transform="translate(-135 -507.31)"/>
    <path class="cls-3" d="M301.2,532.5c-3.61,0-6.56,2.15-6.56,4.8s2.95,4.75,6.56,4.75,6.56-2.15,6.56-4.75-2.94-4.8-6.56-4.8m18.38-13.29c-3.61,0-6.56,2.15-6.56,4.8s3,4.74,6.56,4.74,6.56-2.15,6.56-4.74-2.94-4.8-6.56-4.8m-9.21,6.64c-3.62,0-6.56,2.15-6.56,4.8s2.94,4.75,6.56,4.75,6.56-2.15,6.56-4.75-2.94-4.8-6.56-4.8" transform="translate(-135 -507.31)"/>
    <path class="cls-3" d="M432.1,549.56c0-2.59-2.94-4.74-6.56-4.74S419,547,419,549.56s2.94,4.8,6.56,4.8,6.56-2.15,6.56-4.8m18.38,13.3c0-2.6-2.94-4.75-6.56-4.75s-6.56,2.15-6.56,4.75,2.94,4.8,6.56,4.8,6.56-2.15,6.56-4.8m-9.21-6.65c0-2.6-2.95-4.75-6.56-4.75s-6.56,2.15-6.56,4.75,2.94,4.8,6.56,4.8,6.56-2.15,6.56-4.8" transform="translate(-135 -507.31)"/>
    <path class="cls-3" d="M177.43,532.08c-3.65,0-6.63,2.17-6.63,4.85s3,4.8,6.63,4.8,6.63-2.18,6.63-4.8-3-4.85-6.63-4.85" transform="translate(-135 -507.31)"/>
    <path class="cls-3" d="M425.43,532.08c-3.66,0-6.63,2.17-6.63,4.85s3,4.8,6.63,4.8,6.63-2.18,6.63-4.8-3-4.85-6.63-4.85" transform="translate(-135 -507.31)"/>
    <path class="cls-3" d="M675.34,532.6c-3.62,0-6.56,2.15-6.56,4.8s2.94,4.74,6.56,4.74,6.56-2.15,6.56-4.74-2.94-4.8-6.56-4.8M684.5,526c-3.61,0-6.56,2.15-6.56,4.8s2.95,4.75,6.56,4.75,6.56-2.15,6.56-4.75-2.94-4.8-6.56-4.8" transform="translate(-135 -507.31)"/>
  </g>
</svg>
