<svg id="Ebene_1" data-name="Ebene 1" xmlns="http://www.w3.org/2000/svg" viewBox="0 0 316.39 247.49">
  <defs>
    <style>
      .cls-1 {
        fill: #1d1d1b;
      }
    </style>
  </defs>
  <title>Kombination_3</title>
  <g>
    <path class="cls-1" d="M339.76,432.55c0,6.32-7.32,11.44-16.29,11.44s-16.29-5.12-16.29-11.44h8.24c0,5,3.57,9.15,8.05,9.15s8.24-4,8.24-9.15c0-4.94-3.66-9.06-8.24-9.06a7.49,7.49,0,0,0-5.58,2.56c-.73,1.56-2.84,2.75-5.31,2.75-3,0-5.4-1.74-5.4-3.85s2.38-3.84,5.4-3.84a7.29,7.29,0,0,1,3.84,1.1,22.38,22.38,0,0,1,7.05-1.1C332.44,421.11,339.76,426.24,339.76,432.55Zm-4.94,20.68c0,5-3.66,9.16-8.15,9.16s-8.14-4.12-8.14-9.16,3.66-9.15,8.14-9.15S334.82,448.11,334.82,453.23Zm29.1-18.3H372c-1.56,5.22-8.15,9.15-16,9.15a21.71,21.71,0,0,1-7-1.1,7.29,7.29,0,0,1-3.84,1.1c-2.93,0-5.4-1.74-5.4-3.75s2.47-3.84,5.4-3.84c2.38,0,4.48,1.09,5.22,2.65a7.56,7.56,0,0,0,5.67,2.65A8.43,8.43,0,0,0,363.92,434.93Zm-15.74-4.48H340c1.46-5.31,8-9.16,15.92-9.16a22.38,22.38,0,0,1,7.05,1.1,6.82,6.82,0,0,1,3.84-1.1c2.93,0,5.4,1.65,5.4,3.75s-2.47,3.85-5.4,3.85c-2.56,0-4.76-1.28-5.31-2.93a8,8,0,0,0-5.58-2.38C352.21,423.58,349.1,426.51,348.18,430.45Zm12.72,22.78c0,5.13-3.57,9.16-8.14,9.16s-8.15-4-8.15-9.16,3.66-9.15,8.15-9.15S360.9,448.2,360.9,453.23ZM356,428.89c3,0,5.4,1.65,5.4,3.75s-2.38,3.85-5.4,3.85-5.4-1.74-5.4-3.85S352.94,428.89,356,428.89Z" transform="translate(-307.18 -412.14)"/>
    <path class="cls-1" d="M392.93,425c0-2.1,2.47-3.84,5.49-3.84a7,7,0,0,1,3.76,1.1,21.87,21.87,0,0,1,7-1.1c9.07,0,16.39,5.13,16.39,11.44h-8.24c0-5-3.66-9.15-8.15-9.15a7.7,7.7,0,0,0-5.58,2.47c-.55,1.65-2.74,2.93-5.22,2.93C395.4,428.8,392.93,427.06,392.93,425Zm32.59,15.38v.46c-.37,1.74-2.66,3.2-5.4,3.2a6.77,6.77,0,0,1-3.76-1.1,22.45,22.45,0,0,1-7.14,1.1c-9,0-16.29-5.12-16.29-11.44h8.15c0,5,3.66,9.15,8.14,9.15a7.72,7.72,0,0,0,5.86-2.83,5.69,5.69,0,0,1,5-2.48c2.83,0,5.12,1.47,5.49,3.39A1.18,1.18,0,0,0,425.52,440.33Zm-4.86,12.9c0,5-3.66,9.16-8.14,9.16s-8.15-4.12-8.15-9.16,3.57-9.15,8.15-9.15S420.66,448.2,420.66,453.23ZM471.28,416v4.12c0,4.49-5.13,8.06-11.54,8.06h-2.65c-1.74,0-2.1,1.1-1.46,1.74,2.56,1.46,4.21,3.66,4.21,6.13,0,4.48-5.13,8.05-11.44,8.05H430.92c-2.75,0-5-1.55-5.4-3.29a1.2,1.2,0,0,0,.09-.55v-.46c.36-1.83,2.65-3.29,5.4-3.29,3,0,5.4,1.64,5.4,3.84a2.77,2.77,0,0,1-.46,1.46H448.4c1.92,0,3.29-2.1,3.29-6.77,0-3.84-4.3-6.86-7.32-6.86H437c-6.32,0-11.44-3.57-11.35-8.06s5-8,11.35-8H448.4c3,0,5.4,1.74,5.4,3.84s-2.38,3.76-5.4,3.76-5.5-1.65-5.5-3.76a3.15,3.15,0,0,1,.46-1.55H437c-1.84,0-3.3,2.56-3.3,5.67s1.46,5.77,3.3,5.77h22.78c1.84,0,3.3-2.56,3.3-5.77v-.91a3.75,3.75,0,0,1-2.65-3.21c0-2.1,2.47-3.84,5.4-3.84S471.28,413.88,471.28,416Zm-24.62,37.25c0,5.13-3.57,9.16-8.15,9.16s-8.14-4-8.14-9.16,3.66-9.06,8.14-9.06S446.66,448.2,446.66,453.23Z" transform="translate(-307.18 -412.14)"/>
    <path class="cls-1" d="M482.62,425c0-2.1,2.47-3.75,5.4-3.75a6.86,6.86,0,0,1,3.85,1.1,22.27,22.27,0,0,1,7-1.1c7.88,0,14.47,3.85,16,9.16h-8.24c-.91-3.94-4-6.87-7.78-6.87a8,8,0,0,0-5.58,2.38c-.55,1.65-2.74,2.93-5.31,2.93C485.09,428.89,482.62,427.15,482.62,425Zm32.4,15.2a2,2,0,0,0,.09.73c-.45,1.74-2.65,3.11-5.31,3.11A7.32,7.32,0,0,1,506,443a21.66,21.66,0,0,1-7,1.1c-7.87,0-14.46-3.93-16-9.15H491c.92,3.94,4.12,6.86,8,6.86a7.6,7.6,0,0,0,5.68-2.65c.73-1.56,2.84-2.65,5.21-2.65,2.57,0,4.76,1.37,5.31,3.11A1.56,1.56,0,0,0,515,440.24Zm-10.71-7.6c0,2.11-2.38,3.85-5.4,3.85s-5.4-1.74-5.4-3.85,2.38-3.75,5.4-3.75S504.31,430.54,504.31,432.64Zm5.86,20.59c0,5-3.66,9.16-8.14,9.16s-8.15-4.12-8.15-9.16,3.66-9.15,8.15-9.15S510.17,448.11,510.17,453.23ZM515.11,441a1.43,1.43,0,0,0,.1-.64,1.82,1.82,0,0,0-.1-.73c.46-1.83,2.66-3.21,5.4-3.21a6.32,6.32,0,0,1,3.3.83,3.4,3.4,0,0,1-1.1-2.29c0-2.2,2.38-3.84,5.4-3.84s5.49,1.64,5.49,3.84c0,2-2.47,3.75-5.49,3.75a6.1,6.1,0,0,1-3.3-.82,3.37,3.37,0,0,1,1.1,2.38c0,2.1-2.38,3.75-5.4,3.75C517.86,444,515.57,442.71,515.11,441Zm21.15,12.26c0,5.13-3.57,9.16-8.15,9.16s-8.15-4-8.15-9.16,3.66-9.15,8.15-9.15S536.26,448.2,536.26,453.23Z" transform="translate(-307.18 -412.14)"/>
    <path class="cls-1" d="M558.49,425c0-2.1,2.47-3.75,5.4-3.75a6.86,6.86,0,0,1,3.85,1.1,22.27,22.27,0,0,1,7-1.1c7.87,0,14.46,3.85,16,9.16h-8.24c-.91-3.94-4-6.87-7.78-6.87A8,8,0,0,0,569.2,426c-.55,1.65-2.74,2.93-5.31,2.93C561,428.89,558.49,427.15,558.49,425Zm32.58,15.29c0,2-2.47,3.75-5.4,3.75a7.32,7.32,0,0,1-3.84-1.1,21.66,21.66,0,0,1-7.05,1.1c-7.87,0-14.46-3.93-16-9.15h8.05c.92,3.94,4.12,6.86,8,6.86a7.6,7.6,0,0,0,5.68-2.65c.73-1.56,2.83-2.65,5.21-2.65C588.6,436.49,591.07,438.22,591.07,440.33Zm-10.89-7.69c0,2.11-2.38,3.85-5.4,3.85s-5.4-1.74-5.4-3.85,2.38-3.75,5.4-3.75S580.18,430.54,580.18,432.64ZM586,453.23c0,5-3.66,9.16-8.14,9.16s-8.15-4.12-8.15-9.16,3.66-9.15,8.15-9.15S586,448.11,586,453.23Zm37.53-20.68c0,6.32-7.33,11.35-16.3,11.35s-16.29-5-16.29-11.35,7.32-11.44,16.29-11.44S623.57,426.24,623.57,432.55Zm-11.45,20.68c0,5.13-3.56,9.16-8.14,9.16s-8.15-4-8.15-9.16,3.66-9.15,8.15-9.15S612.12,448.2,612.12,453.23Zm3.3-20.68c0-5-3.57-9.15-8.15-9.15-4.39,0-8,4.12-8,9.15s3.66,9.06,8,9.06C611.85,441.61,615.42,437.49,615.42,432.55Z" transform="translate(-307.18 -412.14)"/>
  </g>
  <g>
    <path class="cls-1" d="M396.35,611.85h8.09c-1.36,4.82-6.91,8.37-13.74,9,4.37,0,8,4,8,9.1s-3.64,9.1-8.1,9.1-8.1-4.09-8.1-9.1c0-4.73,3.1-8.46,7.1-9h-1a21.18,21.18,0,0,1-6.92-1.09,6.15,6.15,0,0,1-3.82,1.18c-2.36,0-4.55-1.18-5.19-2.73a7.8,7.8,0,0,0-5.64-2.55c-4.55,0-8.19,4.1-8.19,9,0,5.1,3.64,9.1,8.19,9.1s8-4.09,8-9.1h8.19c0,6.28-7.28,11.38-16.2,11.38s-16.2-5.1-16.2-11.38,7.28-11.37,16.2-11.37a22.08,22.08,0,0,1,7,1.09,6.67,6.67,0,0,1,3.73-1.09c2.55,0,4.73,1.27,5.28,2.91a7.93,7.93,0,0,0,5.55,2.37C392.34,618.68,395.44,615.76,396.35,611.85Zm-9.2,30.85c0,5.1-3.64,9.1-8.1,9.1s-8.09-4-8.09-9.1,3.54-9.1,8.09-9.1S387.15,637.7,387.15,642.7Zm-6.46-35.31h-8c1.55-5.18,8.1-9.1,15.93-9.1a22,22,0,0,1,7,1.09,7.3,7.3,0,0,1,3.82-1.09c2.91,0,5.37,1.73,5.37,3.73s-2.46,3.83-5.37,3.83c-2.37,0-4.46-1.1-5.19-2.64a7.54,7.54,0,0,0-5.64-2.64A8.4,8.4,0,0,0,380.69,607.39ZM394,609.67c0,2.09-2.37,3.73-5.37,3.73s-5.37-1.64-5.37-3.73,2.37-3.82,5.37-3.82S394,607.57,394,609.67Z" transform="translate(-307.18 -412.14)"/>
    <path class="cls-1" d="M466,605.12v2.36H443.3c-1.82,0-3.28,2.55-3.28,5.65V614c1.64.63,2.73,1.82,2.73,3.18,0,2.18-2.45,3.82-5.46,3.82-2.54,0-4.64-1.18-5.18-2.82a7.51,7.51,0,0,0-5.55-2.46c-4.55,0-8.19,4.1-8.19,9h-8.1c0-6.27,7.28-11.37,16.29-11.37a24.46,24.46,0,0,1,5.37.64v-.91c0-4.37,5.09-8,11.37-8h2.64c1.91,0,2.18-1.28,1.37-1.73h.09c-2.55-1.46-4.19-3.64-4.19-6.1,0-4.46,5.1-8,11.47-8H472c2.91,0,5.37,1.73,5.37,3.73,0,2.19-2.46,3.83-5.37,3.83s-5.46-1.64-5.46-3.83a2.75,2.75,0,0,1,.45-1.45H454.68c-2,0-3.28,2.18-3.28,6.82,0,3.73,4.19,6.74,7.19,6.74Zm-7.64,24.39c0,5-3.64,9.1-8.1,9.1s-8.1-4.1-8.1-9.1a8.59,8.59,0,0,1,.27-2.19c-.91,2.73-3.18,5-6.28,6.64a6.72,6.72,0,0,1,2.73-.54c4.46,0,8.1,4.09,8.1,9.1s-3.64,9.1-8.1,9.1-8.1-4.1-8.1-9.1a9.34,9.34,0,0,1,4.55-8.19,20.87,20.87,0,0,1-8.73,1.82,21.3,21.3,0,0,1-7-1.09,7.33,7.33,0,0,1-3.82,1.09c-3,0-5.46-1.73-5.46-3.82s2.45-3.73,5.46-3.73c2.54,0,4.55,1.18,5.18,2.82a7.74,7.74,0,0,0,5.65,2.45c4.36,0,8-4.09,8-9.1h8.19a10,10,0,0,1-.18,1.64,8.12,8.12,0,0,1,7.65-6C454.68,620.41,458.32,624.41,458.32,629.51Zm19-16.38c0,4.36-5.1,7.91-11.38,7.91H454.68c-3,0-5.46-1.64-5.46-3.82,0-2,2.45-3.73,5.46-3.73s5.37,1.73,5.37,3.73a3.12,3.12,0,0,1-.46,1.55H466c1.82,0,3.28-2.55,3.28-5.64s-1.46-5.65-3.28-5.65l.09-2.36C472.24,605.12,477.34,608.76,477.34,613.13Z" transform="translate(-307.18 -412.14)"/>
    <path class="cls-1" d="M482.79,617.22c0-2.09,2.46-3.73,5.37-3.73a6.75,6.75,0,0,1,3.82,1.09,22.17,22.17,0,0,1,7-1.09c7.83,0,14.38,3.82,15.93,9.1h-8.19c-.91-3.91-4-6.83-7.74-6.83a7.93,7.93,0,0,0-5.55,2.37c-.54,1.64-2.73,2.91-5.28,2.91C485.25,621,482.79,619.31,482.79,617.22Zm27.4,27.85c0,5-3.65,9.1-8.1,9.1s-8.1-4.1-8.1-9.1c0-4.64,3-8.28,6.82-9a12.26,12.26,0,0,1-1.82.09c-7.82,0-14.38-3.91-15.92-9.1h8a8.4,8.4,0,0,0,7.92,6.82,7.55,7.55,0,0,0,5.64-2.63c.73-1.55,2.83-2.64,5.19-2.64,2.91,0,5.37,1.73,5.37,3.82a3.1,3.1,0,0,1-1.18,2.27,6.65,6.65,0,0,1,3.37-.82c3,0,5.45,1.73,5.45,3.74,0,2.18-2.45,3.82-5.45,3.82s-5.37-1.64-5.37-3.82a3.14,3.14,0,0,1,1.18-2.28,6.78,6.78,0,0,1-3.37.82,7.33,7.33,0,0,1-3.82-1.09,19.34,19.34,0,0,1-4.1.91h.19C506.54,636,510.19,640,510.19,645.07Zm-5.83-20.3c0,2.1-2.36,3.83-5.37,3.83s-5.37-1.73-5.37-3.83S496,621,499,621,504.36,622.68,504.36,624.77Zm21.3,25.76c0,5.09-3.55,9.1-8.1,9.1s-8.1-4-8.1-9.1,3.64-9.1,8.1-9.1S525.66,645.52,525.66,650.53Z" transform="translate(-307.18 -412.14)"/>
    <path class="cls-1" d="M531.11,617.22c0-2.09,2.46-3.73,5.37-3.73a6.75,6.75,0,0,1,3.82,1.09,22.17,22.17,0,0,1,7-1.09c7.83,0,14.38,3.82,15.93,9.1h-8.19c-.91-3.91-4-6.83-7.74-6.83a7.93,7.93,0,0,0-5.55,2.37c-.55,1.64-2.73,2.91-5.28,2.91C533.57,621,531.11,619.31,531.11,617.22Zm23.21,17.84a21.69,21.69,0,0,1-7,1.09c-7.82,0-14.38-3.91-15.92-9.1h8a8.4,8.4,0,0,0,7.92,6.82,7.58,7.58,0,0,0,5.65-2.63c.72-1.55,2.82-2.64,5.18-2.64,2.91,0,5.37,1.73,5.37,3.82s-2.46,3.73-5.37,3.73A7.33,7.33,0,0,1,554.32,635.06Zm-1.64-10.29c0,2.1-2.36,3.83-5.37,3.83s-5.37-1.73-5.37-3.83,2.37-3.73,5.37-3.73S552.68,622.68,552.68,624.77ZM569.06,645c0,5-3.64,9.1-8.1,9.1s-8.1-4.1-8.1-9.1,3.64-9.1,8.1-9.1S569.06,639.88,569.06,645Zm26.76-20.3c0,6.28-7.28,11.29-16.2,11.29s-16.2-5-16.2-11.29,7.28-11.37,16.2-11.37S595.82,618.4,595.82,624.68ZM585.26,645c0,5.09-3.55,9.1-8.1,9.1s-8.1-4-8.1-9.1,3.64-9.1,8.1-9.1S585.26,640,585.26,645Zm2.46-20.3c0-5-3.55-9.1-8.1-9.1-4.37,0-8,4.1-8,9.1s3.64,9,8,9C584.17,633.69,587.72,629.6,587.72,624.68Z" transform="translate(-307.18 -412.14)"/>
  </g>
  <line class="cls-1" x1="165.82" y1="72.86" x2="165.82" y2="158.86"/>
</svg>
