<?xml version="1.0" encoding="utf-8"?>
<!-- Generator: Adobe Illustrator 22.1.0, SVG Export Plug-In . SVG Version: 6.00 Build 0)  -->
<svg version="1.1" id="Ebene_1" xmlns="http://www.w3.org/2000/svg" xmlns:xlink="http://www.w3.org/1999/xlink" x="0px" y="0px"
	 viewBox="0 0 129 107" style="enable-background:new 0 0 129 107;" xml:space="preserve">
<style type="text/css">
	.st0{fill:#FFFFFF;}
	.st1{clip-path:url(#SVGID_2_);}
</style>
<title>10</title>
<rect class="st0" width="129" height="107"/>
<g>
	<g>
		<defs>
			<rect id="SVGID_1_" x="31" y="29.5" width="67.9" height="47.5"/>
		</defs>
		<clipPath id="SVGID_2_">
			<use xlink:href="#SVGID_1_"  style="overflow:visible;"/>
		</clipPath>
		<g class="st1">
			<path d="M77.7,77c11.8,0,21.2-6.6,21.2-14.8V36.1H84.7v26.1c0,6.1-3.1,10.9-7.1,10.9s-7-4.8-7-10.9H56.5C56.5,70.4,66,77,77.7,77
				 M56.5,62.2h14.1l2.9-17.9H59.2L56.5,62.2z M89.5,42.7c5.2,0,9.4-3,9.4-6.6s-4.2-6.6-9.4-6.6s-9.4,3-9.4,6.6S84.4,42.7,89.5,42.7
				 M52.2,29.5C40.4,29.5,31,36.1,31,44.3v26.1h14.2V44.3c0-6.1,3.1-10.9,7.1-10.9s6.9,4.8,6.9,10.9h14.2
				C73.5,36.1,64,29.5,52.2,29.5 M40.4,63.8c-5.2,0-9.4,3-9.4,6.6s4.2,6.6,9.4,6.6s9.4-3,9.4-6.6S45.6,63.8,40.4,63.8"/>
		</g>
	</g>
</g>
</svg>
