<svg id="Ebene_1" data-name="Ebene 1" xmlns="http://www.w3.org/2000/svg" xmlns:xlink="http://www.w3.org/1999/xlink" viewBox="0 0 129 107">
  <defs>
    <style>
      .cls-1 {
        fill: none;
      }

      .cls-2 {
        fill: #fff;
      }

      .cls-3 {
        clip-path: url(#clip-path);
      }

      .cls-4 {
        fill: red;
      }
    </style>
    <clipPath id="clip-path">
      <rect class="cls-1" x="31" y="29.5" width="67.9" height="47.5"/>
    </clipPath>
  </defs>
  <title>10_2</title>
  <rect class="cls-2" width="129" height="107"/>
  <g class="cls-3">
    <path class="cls-4" d="M77.74,77C89.5,77,98.9,70.36,98.9,62.2V36.07H84.66V62.2c0,6.09-3.11,10.93-7.06,10.93s-7-4.84-7-10.93H56.5C56.5,70.36,66,77,77.79,77M56.5,62.2H70.6l2.91-17.91H59.21ZM89.55,42.7c5.18,0,9.4-3,9.4-6.63s-4.22-6.57-9.4-6.57-9.41,3-9.41,6.57,4.22,6.63,9.41,6.63M52.21,29.5c-11.76,0-21.16,6.63-21.16,14.79V70.43H45.29V44.29c0-6.08,3.12-10.92,7.06-10.92s6.91,4.84,6.91,10.92H73.51c0-8.16-9.48-14.79-21.3-14.79M40.4,63.79c-5.18,0-9.4,3-9.4,6.64S35.22,77,40.4,77s9.41-3,9.41-6.57-4.22-6.64-9.41-6.64"/>
  </g>
</svg>
