<?xml version="1.0" encoding="utf-8"?>
<!-- Generator: Adobe Illustrator 22.1.0, SVG Export Plug-In . SVG Version: 6.00 Build 0)  -->
<svg version="1.1" id="Ebene_1" xmlns="http://www.w3.org/2000/svg" xmlns:xlink="http://www.w3.org/1999/xlink" x="0px" y="0px"
	 viewBox="0 0 129 107" style="enable-background:new 0 0 129 107;" xml:space="preserve">
<style type="text/css">
	.st0{fill:#FFFFFF;}
	.st1{clip-path:url(#SVGID_2_);}
</style>
<title>11</title>
<rect class="st0" width="129" height="107"/>
<g>
	<g>
		<defs>
			<rect id="SVGID_1_" x="31" y="29.4" width="68" height="47.6"/>
		</defs>
		<clipPath id="SVGID_2_">
			<use xlink:href="#SVGID_1_"  style="overflow:visible;"/>
		</clipPath>
		<g class="st1">
			<path d="M77.6,73.1l0.1,3.9C89.6,77,99,70.4,99,62.2V36H84.7v26.2C84.7,68.3,81.6,73.1,77.6,73.1 M89.6,42.7c5.2,0,9.4-3,9.4-6.6
				s-4.2-6.6-9.4-6.6s-9.4,3-9.4,6.6S84.4,42.7,89.6,42.7 M40.4,63.8c-5.2,0-9.4,3-9.4,6.6s4.2,6.6,9.4,6.6s9.4-3,9.4-6.6
				S45.6,63.8,40.4,63.8 M65,59.8c5.2,0,9.4-3,9.4-6.6s-4.2-6.6-9.4-6.6s-9.4,3-9.4,6.6S59.8,59.8,65,59.8 M52.3,33.3l-0.1-3.9
				C40.4,29.4,31,36.1,31,44.3v26.2h14.3V44.3C45.3,38.2,48.4,33.3,52.3,33.3"/>
		</g>
	</g>
</g>
</svg>
