<svg id="Ebene_1" data-name="Ebene 1" xmlns="http://www.w3.org/2000/svg" xmlns:xlink="http://www.w3.org/1999/xlink" viewBox="0 0 129 107">
  <defs>
    <style>
      .cls-1 {
        fill: none;
      }

      .cls-2 {
        fill: #fff;
      }

      .cls-3 {
        clip-path: url(#clip-path);
      }

      .cls-4 {
        fill: red;
      }
    </style>
    <clipPath id="clip-path">
      <rect class="cls-1" x="31" y="29.45" width="67.97" height="47.55"/>
    </clipPath>
  </defs>
  <title>11_2</title>
  <rect class="cls-2" width="129" height="107"/>
  <g class="cls-3">
    <path class="cls-4" d="M77.65,73.12,77.79,77C89.56,77,99,70.36,99,62.19V36H84.71V62.17c0,6.09-3.11,10.93-7.06,10.93M89.56,42.65c5.19,0,9.41-3,9.41-6.65s-4.22-6.57-9.41-6.57-9.41,3-9.41,6.57,4.22,6.65,9.41,6.65M40.41,63.76c-5.19,0-9.41,3-9.41,6.64S35.22,77,40.41,77s9.42-3,9.42-6.58-4.22-6.64-9.42-6.64M65,59.83c5.19,0,9.41-3,9.41-6.64S70.19,46.61,65,46.61s-9.42,3-9.42,6.58,4.23,6.64,9.42,6.64M52.33,33.32l-.14-3.87C40.42,29.45,31,36.09,31,44.26V70.42H45.27V44.26c0-6.09,3.11-10.94,7.06-10.94"/>
  </g>
</svg>
