<?xml version="1.0" encoding="utf-8"?>
<!-- Generator: Adobe Illustrator 22.1.0, SVG Export Plug-In . SVG Version: 6.00 Build 0)  -->
<svg version="1.1" id="Ebene_1" xmlns="http://www.w3.org/2000/svg" xmlns:xlink="http://www.w3.org/1999/xlink" x="0px" y="0px"
	 viewBox="0 0 129 107" style="enable-background:new 0 0 129 107;" xml:space="preserve">
<style type="text/css">
	.st0{fill:#FFFFFF;}
	.st1{clip-path:url(#SVGID_2_);}
</style>
<title>12</title>
<rect class="st0" width="129" height="107"/>
<g>
	<g>
		<defs>
			<rect id="SVGID_1_" x="25" y="25.5" width="79.3" height="55.5"/>
		</defs>
		<clipPath id="SVGID_2_">
			<use xlink:href="#SVGID_1_"  style="overflow:visible;"/>
		</clipPath>
		<g class="st1">
			<path d="M64.7,53.3c10.9,0,19.8-6.2,19.8-13.9s-8.9-13.9-19.8-13.9s-19.9,6.2-19.9,13.9S53.6,53.3,64.7,53.3 M44.9,81
				c10.9,0,19.8-6.2,19.8-13.9s-8.9-13.9-19.8-13.9S25,59.4,25,67.1S33.9,81,44.9,81 M44.9,77c-3.2,0-5.7-4.4-5.7-9.9
				s2.5-9.9,5.7-9.9s5.7,4.4,5.7,9.9S48.1,77,44.9,77 M64.7,67.1V49.9L51.9,50c1.5,0.8,0.8,4.1-2.3,3.5L64.7,67.1z M64.7,67.1
				l15.1-13.5c-3.1,0.6-3.9-2.7-2.4-3.5L64.7,50V67.1z M84.5,81c10.9,0,19.8-6.2,19.8-13.9s-8.9-13.9-19.8-13.9s-19.8,6.2-19.8,13.9
				S73.6,81,84.5,81 M84.5,77c-3.2,0-5.6-4.4-5.6-9.9s2.4-9.9,5.6-9.9s5.7,4.4,5.7,9.9S87.7,77,84.5,77 M64.7,49.3
				c-3.2,0-5.7-4.4-5.7-9.9s2.5-9.9,5.7-9.9c3.2,0,5.7,4.4,5.7,9.9S67.9,49.3,64.7,49.3 M62.7,73.1c1.3-1.9,2.7-1.9,4,0l-2-6
				L62.7,73.1z"/>
		</g>
	</g>
</g>
</svg>
