<svg id="Ebene_1" data-name="Ebene 1" xmlns="http://www.w3.org/2000/svg" xmlns:xlink="http://www.w3.org/1999/xlink" viewBox="0 0 129 107">
  <defs>
    <style>
      .cls-1 {
        fill: none;
      }

      .cls-2 {
        fill: #fff;
      }

      .cls-3 {
        clip-path: url(#clip-path);
      }

      .cls-4 {
        fill: red;
      }
    </style>
    <clipPath id="clip-path">
      <rect class="cls-1" x="25" y="25.49" width="79.3" height="55.51"/>
    </clipPath>
  </defs>
  <title>12_2</title>
  <rect class="cls-2" width="129" height="107"/>
  <g class="cls-3">
    <path class="cls-4" d="M64.69,53.32c10.89,0,19.77-6.25,19.77-13.88S75.58,25.49,64.69,25.49s-19.92,6.25-19.92,14,8.88,13.88,19.92,13.88M44.91,81c10.9,0,19.78-6.24,19.78-13.88S55.81,53.18,44.91,53.18,25,59.42,25,67.12,33.88,81,44.91,81m0-4c-3.19,0-5.69-4.44-5.69-9.92s2.5-9.92,5.69-9.92,5.69,4.44,5.69,9.92S48.1,77,44.91,77m19.78-9.92V49.88L51.85,50c1.46.83.76,4.09-2.29,3.53Zm0,0L79.81,53.55c-3,.56-3.88-2.7-2.43-3.53l-12.69-.14ZM84.53,81c10.89,0,19.77-6.24,19.77-13.88S95.42,53.18,84.53,53.18,64.69,59.42,64.69,67.12,73.57,81,84.53,81m0-4c-3.19,0-5.62-4.44-5.62-9.92s2.43-9.92,5.62-9.92,5.69,4.44,5.69,9.92S87.72,77,84.53,77M64.69,49.32c-3.2,0-5.69-4.44-5.69-9.92s2.49-9.92,5.69-9.92,5.69,4.44,5.69,9.92-2.5,9.92-5.69,9.92m-2,23.8c1.32-1.94,2.71-1.94,4,0l-2-6Z"/>
  </g>
</svg>
