<?xml version="1.0" encoding="utf-8"?>
<!-- Generator: Adobe Illustrator 22.1.0, SVG Export Plug-In . SVG Version: 6.00 Build 0)  -->
<svg version="1.1" id="Ebene_1" xmlns="http://www.w3.org/2000/svg" xmlns:xlink="http://www.w3.org/1999/xlink" x="0px" y="0px"
	 viewBox="0 0 129 107" style="enable-background:new 0 0 129 107;" xml:space="preserve">
<style type="text/css">
	.st0{fill:#FFFFFF;}
	.st1{clip-path:url(#SVGID_2_);}
</style>
<title>13</title>
<rect class="st0" width="129" height="107"/>
<g>
	<g>
		<defs>
			<rect id="SVGID_1_" x="25" y="25.5" width="79.3" height="55.5"/>
		</defs>
		<clipPath id="SVGID_2_">
			<use xlink:href="#SVGID_1_"  style="overflow:visible;"/>
		</clipPath>
		<g class="st1">
			<path d="M64.7,53.3c10.9,0,19.8-6.2,19.8-13.9s-8.9-14-19.8-14s-19.9,6.2-19.9,14S53.7,53.3,64.7,53.3 M71.9,57.2l7.9-3.6
				c-3.1,0.6-3.9-2.7-2.4-3.5L64.7,50L71.9,57.2z M84.5,81c10.9,0,19.8-6.2,19.8-13.9s-8.9-14-19.8-14s-19.9,6.2-19.9,14
				S73.6,81,84.5,81 M84.5,77c-3.2,0-5.6-4.4-5.6-9.9s2.4-9.9,5.6-9.9s5.7,4.4,5.7,9.9S87.7,77,84.5,77 M64.7,49.4
				c-3.2,0-5.7-4.4-5.7-9.9s2.5-9.9,5.7-9.9c3.2,0,5.7,4.4,5.7,9.9S67.9,49.3,64.7,49.4 M25,74.3h14.2v-7.2H25V74.3z M34.4,81
				c5.2,0,9.4-3,9.4-6.7s-4.2-6.6-9.4-6.6s-9.4,3-9.4,6.6S29.2,81,34.4,81 M25,67.1h14.2c0-5.5,2.5-9.9,5.7-9.9v-4
				C33.9,53.2,25,59.5,25,67.1 M71.9,57.3l0.9-6.2l-21-0.9c1.5,0.8,1,3.1-2.3,3.1h-4.6v4L71.9,57.3z"/>
		</g>
	</g>
</g>
</svg>
