<svg id="Ebene_1" data-name="Ebene 1" xmlns="http://www.w3.org/2000/svg" xmlns:xlink="http://www.w3.org/1999/xlink" viewBox="0 0 129 107">
  <defs>
    <style>
      .cls-1 {
        fill: none;
      }

      .cls-2 {
        fill: #fff;
      }

      .cls-3 {
        clip-path: url(#clip-path);
      }

      .cls-4 {
        fill: red;
      }
    </style>
    <clipPath id="clip-path">
      <rect class="cls-1" x="25" y="25.48" width="79.32" height="55.52"/>
    </clipPath>
  </defs>
  <title>13_2</title>
  <rect class="cls-2" width="129" height="107"/>
  <g class="cls-3">
    <path class="cls-4" d="M64.7,53.31c10.89,0,19.78-6.25,19.78-13.88s-8.89-14-19.78-14-19.92,6.25-19.92,14S53.66,53.31,64.7,53.31m7.21,3.89,7.92-3.61c-3.06.55-3.89-2.71-2.43-3.54l-12.7-.14ZM84.55,81c10.89,0,19.77-6.25,19.77-13.88s-8.88-14-19.77-14-19.85,6.25-19.85,14S73.58,81,84.55,81m0-4c-3.2,0-5.63-4.44-5.63-9.92s2.43-9.92,5.63-9.92,5.69,4.44,5.69,9.92S87.74,77,84.55,77M64.7,49.35c-3.2,0-5.69-4.44-5.69-9.92S61.5,29.5,64.7,29.5s5.69,4.45,5.69,9.93-2.5,9.92-5.69,9.92M25,74.35H39.23V67.13H25ZM34.44,81c5.2,0,9.44-3,9.44-6.66s-4.24-6.6-9.44-6.6-9.44,3-9.44,6.6S29.23,81,34.44,81M25,67.12H39.23c0-5.48,2.5-9.92,5.69-9.92v-4c-11,0-19.92,6.25-19.92,14m46.91-9.92L72.82,51l-21-.9c1.46.83,1,3.12-2.29,3.12H44.88v4Z"/>
  </g>
</svg>
