<?xml version="1.0" encoding="utf-8"?>
<!-- Generator: Adobe Illustrator 22.1.0, SVG Export Plug-In . SVG Version: 6.00 Build 0)  -->
<svg version="1.1" id="Ebene_1" xmlns="http://www.w3.org/2000/svg" xmlns:xlink="http://www.w3.org/1999/xlink" x="0px" y="0px"
	 viewBox="0 0 129 107" style="enable-background:new 0 0 129 107;" xml:space="preserve">
<style type="text/css">
	.st0{fill:#FFFFFF;}
	.st1{clip-path:url(#SVGID_2_);}
</style>
<title>14</title>
<rect class="st0" width="129" height="107"/>
<g>
	<g>
		<defs>
			<rect id="SVGID_1_" x="25" y="25.5" width="79.2" height="55.5"/>
		</defs>
		<clipPath id="SVGID_2_">
			<use xlink:href="#SVGID_1_"  style="overflow:visible;"/>
		</clipPath>
		<g class="st1">
			<path d="M64.6,53.3l6.9-0.1c-5.3,0-12.6-5.3-12.6-11.9c0-8.1,2.3-11.8,5.7-11.8h30.2v-4l-30.2,0.1c-11,0-19.9,6.2-19.9,13.9
				S53.6,53.4,64.6,53.3 M25,74.4h14.2v-7.3H25V74.4z M34.4,81c5.2,0,9.4-3,9.4-6.7s-4.2-6.6-9.4-6.6s-9.4,3-9.4,6.6
				S29.2,81,34.4,81 M64.6,57.2v-4l-12.8-3.1c1.4,0.8,1,3.1-2.3,3.1h-4.6v4H64.6z M84.5,81c10.9,0,19.8-6.2,19.8-13.9
				s-8.9-13.9-19.8-13.9s-19.8,6.2-19.8,13.9S73.5,81,84.5,81 M84.5,77c-3.2,0-5.6-4.4-5.6-9.9s2.4-9.9,5.6-9.9s5.7,4.4,5.7,9.9
				S87.7,77,84.5,77 M64.6,57.2h7l13-4h-20V57.2z M94.8,38.8c5.2,0,9.4-3,9.4-6.6s-4.2-6.6-9.4-6.6s-9.4,3-9.4,6.6
				S89.6,38.8,94.8,38.8 M25,67.1h14.2c0-5.5,2.5-9.9,5.7-9.9v-4C33.9,53.2,25,59.5,25,67.1"/>
		</g>
	</g>
</g>
</svg>
