<svg id="Ebene_1" data-name="Ebene 1" xmlns="http://www.w3.org/2000/svg" xmlns:xlink="http://www.w3.org/1999/xlink" viewBox="0 0 129 107">
  <defs>
    <style>
      .cls-1 {
        fill: none;
      }

      .cls-2 {
        fill: #fff;
      }

      .cls-3 {
        clip-path: url(#clip-path);
      }

      .cls-4 {
        fill: red;
      }
    </style>
    <clipPath id="clip-path">
      <rect class="cls-1" x="25" y="25.54" width="79.23" height="55.46"/>
    </clipPath>
  </defs>
  <title>14_2</title>
  <rect class="cls-2" width="129" height="107"/>
  <g class="cls-3">
    <path class="cls-4" d="M64.65,53.34l6.93-.14C66.31,53.2,59,47.86,59,41.35c0-8.11,2.29-11.79,5.68-11.79H94.88v-4l-30.23.07c-11,0-19.89,6.17-19.89,13.87s8.87,13.86,19.89,13.86M25,74.36H39.21v-7.2H25ZM34.43,81c5.2,0,9.42-3,9.42-6.66s-4.22-6.58-9.42-6.58S25,70.78,25,74.36,29.23,81,34.43,81M64.65,57.24v-4L51.83,50.12c1.45.83,1,3.12-2.29,3.12H44.9v4ZM84.48,81c10.88,0,19.75-6.24,19.75-13.86S95.36,53.2,84.48,53.2,64.65,59.44,64.65,67.14,73.53,81,84.48,81m0-4c-3.19,0-5.62-4.44-5.62-9.91s2.43-9.92,5.62-9.92,5.68,4.44,5.68,9.92-2.49,9.91-5.68,9.91M64.65,57.22h6.86l13-4H64.65ZM94.81,38.78c5.19,0,9.42-3,9.42-6.65s-4.23-6.59-9.42-6.59-9.43,3-9.43,6.59,4.23,6.65,9.43,6.65M25,67.14H39.21c0-5.48,2.5-9.92,5.69-9.92v-4c-11,0-19.9,6.24-19.9,13.94"/>
  </g>
</svg>
