<?xml version="1.0" encoding="utf-8"?>
<!-- Generator: Adobe Illustrator 22.1.0, SVG Export Plug-In . SVG Version: 6.00 Build 0)  -->
<svg version="1.1" id="Ebene_1" xmlns="http://www.w3.org/2000/svg" xmlns:xlink="http://www.w3.org/1999/xlink" x="0px" y="0px"
	 viewBox="0 0 129 107" style="enable-background:new 0 0 129 107;" xml:space="preserve">
<style type="text/css">
	.st0{fill:#FFFFFF;}
	.st1{clip-path:url(#SVGID_2_);}
</style>
<title>15</title>
<rect class="st0" width="129" height="107"/>
<g>
	<g>
		<defs>
			<rect id="SVGID_1_" x="25" y="25.1" width="79.9" height="55.9"/>
		</defs>
		<clipPath id="SVGID_2_">
			<use xlink:href="#SVGID_1_"  style="overflow:visible;"/>
		</clipPath>
		<g class="st1">
			<path d="M65,53.1l7-0.1c-5.3,0-12.7-5.4-12.7-12c0-8.2,2.3-11.9,5.7-11.9h30.5V25L65,25.1c-11.1,0-20.1,6.2-20.1,14
				S53.9,53.1,65,53.1 M25,74.3h14.3V67H25V74.3z M34.5,81c5.2,0,9.5-3,9.5-6.7s-4.3-6.6-9.5-6.6s-9.5,3-9.5,6.6S29.3,81,34.5,81
				 M65,57v-4l-12.9-3.1c1.5,0.8,1,3.1-2.3,3.1h-4.7v4H65z M85,53v4c3.2,0,5.7,4.5,5.7,10S88.2,77,85,77H65.1L65,81h20
				c11,0,19.9-6.3,19.9-14S96,53,85,53 M65,57h20v-4H65V57z M95.4,38.4c5.2,0,9.5-3,9.5-6.7s-4.3-6.6-9.5-6.6s-9.5,3-9.5,6.6
				S90.2,38.4,95.4,38.4 M25,67h14.3c0-5.5,2.6-10,5.8-10v-4C34.1,53,25,59.2,25,67 M65,81c5.2,0,9.5-3,9.5-6.7s-4.3-6.6-9.5-6.6
				s-9.5,3-9.5,6.6S59.8,81,65,81"/>
		</g>
	</g>
</g>
</svg>
