<svg id="Ebene_1" data-name="Ebene 1" xmlns="http://www.w3.org/2000/svg" xmlns:xlink="http://www.w3.org/1999/xlink" viewBox="0 0 129 107">
  <defs>
    <style>
      .cls-1 {
        fill: none;
      }

      .cls-2 {
        fill: #fff;
      }

      .cls-3 {
        clip-path: url(#clip-path);
      }

      .cls-4 {
        fill: red;
      }
    </style>
    <clipPath id="clip-path">
      <rect class="cls-1" x="25" y="25.06" width="79.93" height="55.94"/>
    </clipPath>
  </defs>
  <title>15_2</title>
  <rect class="cls-2" width="129" height="107"/>
  <g class="cls-3">
    <path class="cls-4" d="M65,53.1,72,53c-5.31,0-12.72-5.39-12.72-12,0-8.18,2.3-11.89,5.73-11.89H95.5V25L65,25.09c-11.12,0-20.07,6.22-20.07,14s9,14,20.07,14M25,74.28H39.35V67H25ZM34.52,81C39.77,81,44,78,44,74.28s-4.26-6.65-9.51-6.65S25,70.63,25,74.28,29.28,81,34.52,81M65,57V53L52.06,49.85c1.47.84,1,3.15-2.31,3.15H45.07v4Zm20-4v4c3.22,0,5.73,4.48,5.73,10S88.22,77,85,77H65.07L65,81H85c11,0,19.93-6.29,19.93-14S96,53,85,53M65,57H85V53H65ZM95.42,38.4c5.24,0,9.51-3,9.51-6.71s-4.27-6.64-9.51-6.64-9.51,3-9.51,6.64,4.26,6.71,9.51,6.71M25,67H39.34c0-5.52,2.51-10,5.73-10V53C34,53,25,59.25,25,67M65,81c5.24,0,9.51-3,9.51-6.71S70.24,67.64,65,67.64s-9.51,3-9.51,6.65S59.75,81,65,81"/>
  </g>
</svg>
