<svg id="Ebene_1" data-name="Ebene 1" xmlns="http://www.w3.org/2000/svg" xmlns:xlink="http://www.w3.org/1999/xlink" viewBox="0 0 129 107">
  <defs>
    <style>
      .cls-1 {
        fill: none;
      }

      .cls-2 {
        fill: #fff;
      }

      .cls-3 {
        clip-path: url(#clip-path);
      }

      .cls-4 {
        fill: #1d1d1b;
      }
    </style>
    <clipPath id="clip-path" transform="translate(-177 -197)">
      <rect class="cls-1" x="213" y="230.21" width="56.76" height="39.79"/>
    </clipPath>
  </defs>
  <title>6</title>
  <rect class="cls-2" width="129" height="107"/>
  <g class="cls-3">
    <path class="cls-4" d="M230.18,260H216.76c4.86,6,14.12,10,24.62,10,15.65,0,28.38-8.9,28.38-19.89H255.43c0,8.76-6.33,15.86-14.05,15.86a14,14,0,0,1-11.2-6M260.3,243.5c5.21,0,9.46-3,9.46-6.68s-4.25-6.61-9.46-6.61-9.46,3-9.46,6.61,4.24,6.68,9.46,6.68M222.46,270c5.22,0,9.46-3,9.46-6.68s-4.24-6.6-9.46-6.6-9.46,3-9.46,6.6,4.24,6.68,9.46,6.68M213,250.11h14.12c0-8.7,6.33-15.86,14.26-15.86a13.57,13.57,0,0,1,11,6H266c-4.87-6-14.12-10-24.62-10-15.65,0-28.38,8.91-28.38,19.9" transform="translate(-177 -197)"/>
  </g>
</svg>
