<svg id="Ebene_1" data-name="Ebene 1" xmlns="http://www.w3.org/2000/svg" xmlns:xlink="http://www.w3.org/1999/xlink" viewBox="0 0 129 107">
  <defs>
    <style>
      .cls-1 {
        fill: none;
      }

      .cls-2 {
        fill: #fff;
      }

      .cls-3 {
        clip-path: url(#clip-path);
      }

      .cls-4 {
        fill: red;
      }
    </style>
    <clipPath id="clip-path">
      <rect class="cls-1" x="36" y="33.21" width="56.76" height="39.79"/>
    </clipPath>
  </defs>
  <title>6_2</title>
  <rect class="cls-2" width="129" height="107"/>
  <g class="cls-3">
    <path class="cls-4" d="M53.18,63H39.76c4.86,6,14.12,10,24.62,10C80,73,92.76,64.1,92.76,53.11H78.43C78.43,61.87,72.1,69,64.38,69a14,14,0,0,1-11.2-6M83.3,46.5c5.21,0,9.46-3,9.46-6.68s-4.25-6.61-9.46-6.61-9.46,3-9.46,6.61,4.24,6.68,9.46,6.68M45.46,73c5.22,0,9.46-3,9.46-6.68s-4.24-6.6-9.46-6.6-9.46,3-9.46,6.6S40.24,73,45.46,73M36,53.11H50.12c0-8.7,6.33-15.86,14.26-15.86a13.59,13.59,0,0,1,11,6H89c-4.87-6-14.12-10-24.62-10C48.73,33.25,36,42.16,36,53.15"/>
  </g>
</svg>
