<svg id="Ebene_1" data-name="Ebene 1" xmlns="http://www.w3.org/2000/svg" xmlns:xlink="http://www.w3.org/1999/xlink" viewBox="0 0 129 107">
  <defs>
    <style>
      .cls-1 {
        fill: none;
      }

      .cls-2 {
        fill: #fff;
      }

      .cls-3 {
        clip-path: url(#clip-path);
      }

      .cls-4 {
        fill: #1d1d1b;
      }
    </style>
    <clipPath id="clip-path" transform="translate(-177 -197)">
      <rect class="cls-1" x="213" y="230.42" width="56.47" height="39.58"/>
    </clipPath>
  </defs>
  <title>7</title>
  <rect class="cls-2" width="129" height="107"/>
  <g class="cls-3">
    <path class="cls-4" d="M268.91,254.15H254.8c-1.59,6.78-7.06,11.84-13.57,11.84A13.91,13.91,0,0,1,230.09,260H216.74c4.84,5.95,14,10,24.49,10,13.64,0,25-6.78,27.68-15.85m-8.85-10.52c5.19,0,9.41-3,9.41-6.64s-4.22-6.57-9.41-6.57-9.42,3-9.42,6.57,4.23,6.64,9.42,6.64M222.41,270c5.19,0,9.41-3,9.41-6.64s-4.22-6.58-9.41-6.58-9.41,3-9.41,6.58,4.22,6.64,9.41,6.64m5.05-23.67h0Zm13.77,10.52c5.19,0,9.41-3,9.41-6.64s-4.22-6.58-9.41-6.58-9.41,3-9.41,6.58,4.22,6.64,9.41,6.64m13.57-2.7h0Zm-41.25-7.82h13.91c1.59-6.78,7.13-11.9,13.77-11.9a13.51,13.51,0,0,1,10.94,5.95h13.56c-4.84-5.95-14.05-10-24.5-10-13.7,0-25.12,6.85-27.68,15.91" transform="translate(-177 -197)"/>
  </g>
</svg>
