<svg id="Ebene_1" data-name="Ebene 1" xmlns="http://www.w3.org/2000/svg" xmlns:xlink="http://www.w3.org/1999/xlink" viewBox="0 0 129 107">
  <defs>
    <style>
      .cls-1 {
        fill: none;
      }

      .cls-2 {
        fill: #fff;
      }

      .cls-3 {
        clip-path: url(#clip-path);
      }

      .cls-4 {
        fill: red;
      }
    </style>
    <clipPath id="clip-path">
      <rect class="cls-1" x="36" y="33.42" width="56.47" height="39.58"/>
    </clipPath>
  </defs>
  <title>7_2</title>
  <rect class="cls-2" width="129" height="107"/>
  <g class="cls-3">
    <path class="cls-4" d="M91.91,57.15H77.8C76.21,63.93,70.74,69,64.23,69a13.92,13.92,0,0,1-11.14-6H39.74c4.84,6,14,10,24.49,10,13.64,0,25-6.78,27.68-15.85M83.06,46.63c5.19,0,9.41-3,9.41-6.64s-4.22-6.57-9.41-6.57-9.42,3-9.42,6.57,4.23,6.64,9.42,6.64M45.41,73c5.19,0,9.41-3,9.41-6.64s-4.22-6.58-9.41-6.58S36,62.78,36,66.36,40.22,73,45.41,73m5.05-23.67ZM64.23,59.85c5.19,0,9.41-3,9.41-6.64s-4.22-6.58-9.41-6.58-9.41,3-9.41,6.58,4.22,6.64,9.41,6.64m13.57-2.7ZM36.55,49.33H50.46c1.59-6.78,7.13-11.9,13.77-11.9a13.49,13.49,0,0,1,10.94,6H88.73c-4.84-6-14-10-24.5-10-13.7,0-25.12,6.85-27.68,15.91"/>
  </g>
</svg>
