<svg id="Ebene_1" data-name="Ebene 1" xmlns="http://www.w3.org/2000/svg" xmlns:xlink="http://www.w3.org/1999/xlink" viewBox="0 0 129 107">
  <defs>
    <style>
      .cls-1 {
        fill: none;
      }

      .cls-2 {
        fill: #fff;
      }

      .cls-3 {
        clip-path: url(#clip-path);
      }

      .cls-4 {
        fill: red;
      }
    </style>
    <clipPath id="clip-path">
      <rect class="cls-1" x="31" y="29.45" width="67.97" height="47.55"/>
    </clipPath>
  </defs>
  <title>8_2</title>
  <rect class="cls-2" width="129" height="107"/>
  <g class="cls-3">
    <path class="cls-4" d="M31,62.19C31,70.35,40.48,77,52.32,77S73.5,70.35,73.5,62.19,64.09,47.37,52.32,47.37,31,54,31,62.19m28.24,0c0,6-3.11,10.86-7.06,10.86s-7.06-4.84-7.06-10.86,3.12-10.94,7.06-10.94,7.06,4.85,7.06,10.94M56.47,44.26c0,8.17,9.49,14.81,21.32,14.81S99,52.43,99,44.26,89.59,29.45,77.82,29.45,56.5,36.09,56.5,44.26m28.25,0c0,6-3.12,10.87-7.07,10.87s-7.06-4.85-7.06-10.87,3.12-10.94,7.06-10.94,7.07,4.85,7.07,10.94"/>
  </g>
</svg>
